  0
SECTION
  2
HEADER
  9
$ACADVER
  1
AC1021
  9
$ACADMAINTVER
 70
    25
  9
$DWGCODEPAGE
  3
ANSI_1252
  9
$INSBASE
 10
0.0
 20
0.0
 30
0.0
  9
$EXTMIN
 10
-9.10996
 20
-9.10995
 30
0.0
  9
$EXTMAX
 10
9.10996
 20
9.10994
 30
0.0
  9
$LIMMIN
 10
0.0
 20
0.0
  9
$LIMMAX
 10
12.0
 20
9.0
  9
$ORTHOMODE
 70
     0
  9
$REGENMODE
 70
     1
  9
$FILLMODE
 70
     1
  9
$QTEXTMODE
 70
     0
  9
$MIRRTEXT
 70
     1
  9
$LTSCALE
 40
1.0
  9
$ATTMODE
 70
     1
  9
$TEXTSIZE
 40
0.2
  9
$TRACEWID
 40
0.05
  9
$TEXTSTYLE
  7
Standard
  9
$CLAYER
  8
0
  9
$CELTYPE
  6
ByLayer
  9
$CECOLOR
 62
   256
  9
$CELTSCALE
 40
1.0
  9
$DISPSILH
 70
     0
  9
$DIMSCALE
 40
1.0
  9
$DIMASZ
 40
0.18
  9
$DIMEXO
 40
0.0625
  9
$DIMDLI
 40
0.38
  9
$DIMRND
 40
0.0
  9
$DIMDLE
 40
0.0
  9
$DIMEXE
 40
0.18
  9
$DIMTP
 40
0.0
  9
$DIMTM
 40
0.0
  9
$DIMTXT
 40
0.18
  9
$DIMCEN
 40
0.09
  9
$DIMTSZ
 40
0.0
  9
$DIMTOL
 70
     0
  9
$DIMLIM
 70
     0
  9
$DIMTIH
 70
     1
  9
$DIMTOH
 70
     1
  9
$DIMSE1
 70
     0
  9
$DIMSE2
 70
     0
  9
$DIMTAD
 70
     0
  9
$DIMZIN
 70
     0
  9
$DIMBLK
  1

  9
$DIMASO
 70
     1
  9
$DIMSHO
 70
     1
  9
$DIMPOST
  1

  9
$DIMAPOST
  1

  9
$DIMALT
 70
     0
  9
$DIMALTD
 70
     2
  9
$DIMALTF
 40
25.4
  9
$DIMLFAC
 40
1.0
  9
$DIMTOFL
 70
     0
  9
$DIMTVP
 40
0.0
  9
$DIMTIX
 70
     0
  9
$DIMSOXD
 70
     0
  9
$DIMSAH
 70
     0
  9
$DIMBLK1
  1

  9
$DIMBLK2
  1

  9
$DIMSTYLE
  2
Standard
  9
$DIMCLRD
 70
     0
  9
$DIMCLRE
 70
     0
  9
$DIMCLRT
 70
     0
  9
$DIMTFAC
 40
1.0
  9
$DIMGAP
 40
0.09
  9
$DIMJUST
 70
     0
  9
$DIMSD1
 70
     0
  9
$DIMSD2
 70
     0
  9
$DIMTOLJ
 70
     1
  9
$DIMTZIN
 70
     0
  9
$DIMALTZ
 70
     0
  9
$DIMALTTZ
 70
     0
  9
$DIMUPT
 70
     0
  9
$DIMDEC
 70
     4
  9
$DIMTDEC
 70
     4
  9
$DIMALTU
 70
     2
  9
$DIMALTTD
 70
     2
  9
$DIMTXSTY
  7
Standard
  9
$DIMAUNIT
 70
     0
  9
$DIMADEC
 70
     0
  9
$DIMALTRND
 40
0.0
  9
$DIMAZIN
 70
     0
  9
$DIMDSEP
 70
    46
  9
$DIMATFIT
 70
     3
  9
$DIMFRAC
 70
     0
  9
$DIMLDRBLK
  1

  9
$DIMLUNIT
 70
     2
  9
$DIMLWD
 70
    -2
  9
$DIMLWE
 70
    -2
  9
$DIMTMOVE
 70
     0
  9
$DIMFXL
 40
1.0
  9
$DIMFXLON
 70
     0
  9
$DIMJOGANG
 40
0.7853981633974483
  9
$DIMTFILL
 70
     0
  9
$DIMTFILLCLR
 70
     0
  9
$DIMARCSYM
 70
     0
  9
$DIMLTYPE
  6

  9
$DIMLTEX1
  6

  9
$DIMLTEX2
  6

  9
$LUNITS
 70
     2
  9
$LUPREC
 70
     4
  9
$SKETCHINC
 40
0.1
  9
$FILLETRAD
 40
0.5
  9
$AUNITS
 70
     0
  9
$AUPREC
 70
     0
  9
$MENU
  1
.
  9
$ELEVATION
 40
0.0
  9
$PELEVATION
 40
0.0
  9
$THICKNESS
 40
0.0
  9
$LIMCHECK
 70
     0
  9
$CHAMFERA
 40
0.5
  9
$CHAMFERB
 40
0.5
  9
$CHAMFERC
 40
1.0
  9
$CHAMFERD
 40
0.0
  9
$SKPOLY
 70
     0
  9
$TDCREATE
 40
2460329.755646458
  9
$TDUCREATE
 40
2460329.755646458
  9
$TDUPDATE
 40
2460329.755646551
  9
$TDUUPDATE
 40
2460329.755646551
  9
$TDINDWG
 40
0.0000000116
  9
$TDUSRTIMER
 40
0.0000000116
  9
$USRTIMER
 70
     1
  9
$ANGBASE
 50
0.0
  9
$ANGDIR
 70
     0
  9
$PDMODE
 70
     0
  9
$PDSIZE
 40
0.0
  9
$PLINEWID
 40
0.0
  9
$SPLFRAME
 70
     0
  9
$SPLINETYPE
 70
     6
  9
$SPLINESEGS
 70
     8
  9
$HANDSEED
  5
72
  9
$SURFTAB1
 70
     6
  9
$SURFTAB2
 70
     6
  9
$SURFTYPE
 70
     6
  9
$SURFU
 70
     6
  9
$SURFV
 70
     6
  9
$UCSBASE
  2

  9
$UCSNAME
  2

  9
$UCSORG
 10
0.0
 20
0.0
 30
0.0
  9
$UCSXDIR
 10
1.0
 20
0.0
 30
0.0
  9
$UCSYDIR
 10
0.0
 20
1.0
 30
0.0
  9
$UCSORTHOREF
  2

  9
$UCSORTHOVIEW
 70
     0
  9
$UCSORGTOP
 10
0.0
 20
0.0
 30
0.0
  9
$UCSORGBOTTOM
 10
0.0
 20
0.0
 30
0.0
  9
$UCSORGLEFT
 10
0.0
 20
0.0
 30
0.0
  9
$UCSORGRIGHT
 10
0.0
 20
0.0
 30
0.0
  9
$UCSORGFRONT
 10
0.0
 20
0.0
 30
0.0
  9
$UCSORGBACK
 10
0.0
 20
0.0
 30
0.0
  9
$PUCSBASE
  2

  9
$PUCSNAME
  2

  9
$PUCSORG
 10
0.0
 20
0.0
 30
0.0
  9
$PUCSXDIR
 10
1.0
 20
0.0
 30
0.0
  9
$PUCSYDIR
 10
0.0
 20
1.0
 30
0.0
  9
$PUCSORTHOREF
  2

  9
$PUCSORTHOVIEW
 70
     0
  9
$PUCSORGTOP
 10
0.0
 20
0.0
 30
0.0
  9
$PUCSORGBOTTOM
 10
0.0
 20
0.0
 30
0.0
  9
$PUCSORGLEFT
 10
0.0
 20
0.0
 30
0.0
  9
$PUCSORGRIGHT
 10
0.0
 20
0.0
 30
0.0
  9
$PUCSORGFRONT
 10
0.0
 20
0.0
 30
0.0
  9
$PUCSORGBACK
 10
0.0
 20
0.0
 30
0.0
  9
$USERI1
 70
     0
  9
$USERI2
 70
     0
  9
$USERI3
 70
     0
  9
$USERI4
 70
     0
  9
$USERI5
 70
     0
  9
$USERR1
 40
0.0
  9
$USERR2
 40
0.0
  9
$USERR3
 40
0.0
  9
$USERR4
 40
0.0
  9
$USERR5
 40
0.0
  9
$WORLDVIEW
 70
     1
  9
$SHADEDGE
 70
     3
  9
$SHADEDIF
 70
    70
  9
$TILEMODE
 70
     1
  9
$MAXACTVP
 70
    64
  9
$PINSBASE
 10
0.0
 20
0.0
 30
0.0
  9
$PLIMCHECK
 70
     0
  9
$PEXTMIN
 10
1.000000000000000E+20
 20
1.000000000000000E+20
 30
1.000000000000000E+20
  9
$PEXTMAX
 10
-1.000000000000000E+20
 20
-1.000000000000000E+20
 30
-1.000000000000000E+20
  9
$PLIMMIN
 10
0.0
 20
0.0
  9
$PLIMMAX
 10
12.0
 20
9.0
  9
$UNITMODE
 70
     0
  9
$VISRETAIN
 70
     1
  9
$PLINEGEN
 70
     0
  9
$PSLTSCALE
 70
     1
  9
$TREEDEPTH
 70
  3020
  9
$CMLSTYLE
  2
Standard
  9
$CMLJUST
 70
     0
  9
$CMLSCALE
 40
1.0
  9
$PROXYGRAPHICS
 70
     1
  9
$MEASUREMENT
 70
     0
  9
$CELWEIGHT
370
    -1
  9
$ENDCAPS
280
     0
  9
$JOINSTYLE
280
     0
  9
$LWDISPLAY
290
     0
  9
$INSUNITS
 70
     5
  9
$HYPERLINKBASE
  1

  9
$STYLESHEET
  1

  9
$XEDIT
290
     1
  9
$CEPSNTYPE
380
     0
  9
$PSTYLEMODE
290
     1
  9
$FINGERPRINTGUID
  2
{1DED2D90-B260-4FDF-B2FB-073019151790}
  9
$VERSIONGUID
  2
{FAEB1C32-E019-11D5-929B-00C0DF256EC4}
  9
$EXTNAMES
290
     1
  9
$PSVPSCALE
 40
0.0
  9
$OLESTARTUP
290
     0
  9
$SORTENTS
280
   127
  9
$INDEXCTL
280
     0
  9
$HIDETEXT
280
     1
  9
$XCLIPFRAME
290
     0
  9
$HALOGAP
280
     0
  9
$OBSCOLOR
 70
   257
  9
$OBSLTYPE
280
     0
  9
$INTERSECTIONDISPLAY
280
     0
  9
$INTERSECTIONCOLOR
 70
   257
  9
$DIMASSOC
280
     2
  9
$PROJECTNAME
  1

  9
$CAMERADISPLAY
290
     0
  9
$LENSLENGTH
 40
50.0
  9
$CAMERAHEIGHT
 40
0.0
  9
$STEPSPERSEC
 40
2.0
  9
$STEPSIZE
 40
6.0
  9
$3DDWFPREC
 40
2.0
  9
$PSOLWIDTH
 40
0.25
  9
$PSOLHEIGHT
 40
4.0
  9
$LOFTANG1
 40
1.570796326794897
  9
$LOFTANG2
 40
1.570796326794897
  9
$LOFTMAG1
 40
0.0
  9
$LOFTMAG2
 40
0.0
  9
$LOFTPARAM
 70
     7
  9
$LOFTNORMALS
280
     1
  9
$LATITUDE
 40
37.795
  9
$LONGITUDE
 40
-122.394
  9
$NORTHDIRECTION
 40
0.0
  9
$TIMEZONE
 70
 -8000
  9
$LIGHTGLYPHDISPLAY
280
     1
  9
$TILEMODELIGHTSYNCH
280
     1
  9
$SOLIDHIST
280
     1
  9
$SHOWHIST
280
     1
  9
$DWFFRAME
280
     2
  9
$DGNFRAME
280
     2
  9
$REALWORLDSCALE
290
     1
  9
$INTERFERECOLOR
 62
   256
  9
$CSHADOW
280
     0
  9
$SHADOWPLANELOCATION
 40
0.0
  0
ENDSEC
  0
SECTION
  2
CLASSES
  0
CLASS
  1
ACDBDICTIONARYWDFLT
  2
AcDbDictionaryWithDefault
  3
ObjectDBX Classes
 90
        0
 91
        4
280
     0
281
     0
  0
CLASS
  1
VISUALSTYLE
  2
AcDbVisualStyle
  3
ObjectDBX Classes
 90
     4095
 91
        4
280
     0
281
     0
  0
CLASS
  1
MATERIAL
  2
AcDbMaterial
  3
ObjectDBX Classes
 90
     1153
 91
        4
280
     0
281
     0
  0
ENDSEC
  0
SECTION
  2
TABLES
  0
TABLE
  2
VPORT
  5
8
330
0
100
AcDbSymbolTable
 70
     1
  0
VPORT
  5
29
330
8
100
AcDbSymbolTableRecord
100
AcDbViewportTableRecord
  2
*Active
 70
     0
 10
0.0
 20
0.0
 11
1.0
 21
1.0
 12
10.42990654205607
 22
4.5
 13
0.0
 23
0.0
 14
0.5
 24
0.5
 15
0.5
 25
0.5
 16
0.0
 26
0.0
 36
1.0
 17
0.0
 27
0.0
 37
0.0
 40
9.0
 41
1.972972972850329
 42
50.0
 43
0.0
 44
0.0
 50
0.0
 51
0.0
 71
     0
 72
   100
 73
     1
 74
     3
 75
     0
 76
     0
 77
     0
 78
     0
281
     0
 65
     1
110
0.0
120
0.0
130
0.0
111
1.0
121
0.0
131
0.0
112
0.0
122
1.0
132
0.0
 79
     0
146
0.0
 60
     3
 61
     5
292
     1
282
     1
141
0.0
142
0.0
 63
   250
  0
ENDTAB
  0
TABLE
  2
LTYPE
  5
5
330
0
100
AcDbSymbolTable
 70
     1
  0
LTYPE
  5
14
330
5
100
AcDbSymbolTableRecord
100
AcDbLinetypeTableRecord
  2
ByBlock
 70
     0
  3

 72
    65
 73
     0
 40
0.0
  0
LTYPE
  5
15
330
5
100
AcDbSymbolTableRecord
100
AcDbLinetypeTableRecord
  2
ByLayer
 70
     0
  3

 72
    65
 73
     0
 40
0.0
  0
LTYPE
  5
16
330
5
100
AcDbSymbolTableRecord
100
AcDbLinetypeTableRecord
  2
Continuous
 70
     0
  3
Solid line
 72
    65
 73
     0
 40
0.0
  0
ENDTAB
  0
TABLE
  2
LAYER
  5
2
330
0
100
AcDbSymbolTable
 70
     2
  0
LAYER
  5
10
330
2
100
AcDbSymbolTableRecord
100
AcDbLayerTableRecord
  2
0
 70
     0
 62
     7
  6
Continuous
370
    -3
390
F
347
3E
  0
LAYER
  5
40
330
2
100
AcDbSymbolTableRecord
100
AcDbLayerTableRecord
  2
Layer 1
 70
     0
 62
     7
  6
Continuous
370
    -3
390
F
347
3E
  0
ENDTAB
  0
TABLE
  2
STYLE
  5
3
330
0
100
AcDbSymbolTable
 70
     1
  0
STYLE
  5
11
330
3
100
AcDbSymbolTableRecord
100
AcDbTextStyleTableRecord
  2
Standard
 70
     0
 40
0.0
 41
1.0
 50
0.0
 71
     0
 42
0.2
  3
txt
  4

  0
ENDTAB
  0
TABLE
  2
VIEW
  5
6
330
0
100
AcDbSymbolTable
 70
     0
  0
ENDTAB
  0
TABLE
  2
UCS
  5
7
330
0
100
AcDbSymbolTable
 70
     0
  0
ENDTAB
  0
TABLE
  2
APPID
  5
9
330
0
100
AcDbSymbolTable
 70
     2
  0
APPID
  5
12
330
9
100
AcDbSymbolTableRecord
100
AcDbRegAppTableRecord
  2
ACAD
 70
     0
  0
APPID
  5
3F
330
9
100
AcDbSymbolTableRecord
100
AcDbRegAppTableRecord
  2
ODA
 70
     0
  0
ENDTAB
  0
TABLE
  2
DIMSTYLE
  5
A
330
0
100
AcDbSymbolTable
 70
     1
100
AcDbDimStyleTable
  0
DIMSTYLE
105
27
330
A
100
AcDbSymbolTableRecord
100
AcDbDimStyleTableRecord
  2
Standard
 70
     0
178
     0
340
11
  0
ENDTAB
  0
TABLE
  2
BLOCK_RECORD
  5
1
330
0
100
AcDbSymbolTable
 70
     1
  0
BLOCK_RECORD
  5
1F
330
1
100
AcDbSymbolTableRecord
100
AcDbBlockTableRecord
  2
*Model_Space
340
22
 70
     0
280
     1
281
     0
  0
BLOCK_RECORD
  5
1B
330
1
100
AcDbSymbolTableRecord
100
AcDbBlockTableRecord
  2
*Paper_Space
340
1E
 70
     0
280
     1
281
     0
  0
BLOCK_RECORD
  5
23
330
1
100
AcDbSymbolTableRecord
100
AcDbBlockTableRecord
  2
*Paper_Space0
340
26
 70
     0
280
     1
281
     0
  0
ENDTAB
  0
ENDSEC
  0
SECTION
  2
BLOCKS
  0
BLOCK
  5
20
330
1F
100
AcDbEntity
  8
0
100
AcDbBlockBegin
  2
*Model_Space
 70
     0
 10
0.0
 20
0.0
 30
0.0
  3
*Model_Space
  1

  0
ENDBLK
  5
21
330
1F
100
AcDbEntity
  8
0
100
AcDbBlockEnd
  0
BLOCK
  5
1C
330
1B
100
AcDbEntity
 67
     1
  8
0
100
AcDbBlockBegin
  2
*Paper_Space
 70
     0
 10
0.0
 20
0.0
 30
0.0
  3
*Paper_Space
  1

  0
ENDBLK
  5
1D
330
1B
100
AcDbEntity
 67
     1
  8
0
100
AcDbBlockEnd
  0
BLOCK
  5
24
330
23
100
AcDbEntity
  8
0
100
AcDbBlockBegin
  2
*Paper_Space0
 70
     0
 10
0.0
 20
0.0
 30
0.0
  3
*Paper_Space0
  1

  0
ENDBLK
  5
25
330
23
100
AcDbEntity
  8
0
100
AcDbBlockEnd
  0
ENDSEC
  0
SECTION
  2
ENTITIES
  0
LWPOLYLINE
  5
41
330
1F
100
AcDbEntity
  8
Layer 1
370
    53
100
AcDbPolyline
 90
        5
 70
     1
 43
0.0
 10
-6.8125
 20
-6.8125
 10
6.8125
 20
-6.8125
 10
6.8125
 20
6.8125
 10
-6.8125
 20
6.8125
 10
-6.8125
 20
-6.8125
  0
LWPOLYLINE
  5
42
330
1F
100
AcDbEntity
  8
Layer 1
370
    53
100
AcDbPolyline
 90
        5
 70
     1
 43
0.0
 10
-6.09375
 20
-6.09374
 10
6.09375
 20
-6.09374
 10
6.09375
 20
6.09374
 10
-6.09375
 20
6.09374
 10
-6.09375
 20
-6.09374
  0
LWPOLYLINE
  5
43
330
1F
100
AcDbEntity
  8
Layer 1
370
    53
100
AcDbPolyline
 90
        5
 70
     1
 43
0.0
 10
-9.0835
 20
-9.08348
 10
9.0835
 20
-9.08348
 10
9.0835
 20
9.08348
 10
-9.0835
 20
9.08348
 10
-9.0835
 20
-9.08348
  0
SPLINE
  5
44
330
1F
100
AcDbEntity
  8
Layer 1
 62
     5
370
     9
100
AcDbSpline
210
0.0
220
0.0
230
1.0
 70
    11
 71
     3
 72
    48
 73
    44
 74
     0
 42
0.0000000001
 43
0.0000000001
 12
1.0
 22
0.0
 32
0.0
 13
1.0
 23
0.0
 33
0.0
 40
0.0
 40
0.0
 40
0.0
 40
0.0
 40
0.0833333333333333
 40
0.0833333333333333
 40
0.0833333333333333
 40
0.0833333333333333
 40
0.1666666666666667
 40
0.1666666666666667
 40
0.1666666666666667
 40
0.1666666666666667
 40
0.25
 40
0.25
 40
0.25
 40
0.25
 40
0.3333333333333333
 40
0.3333333333333333
 40
0.3333333333333333
 40
0.3333333333333333
 40
0.4166666666666667
 40
0.4166666666666667
 40
0.4166666666666667
 40
0.4166666666666667
 40
0.5
 40
0.5
 40
0.5
 40
0.5
 40
0.5833333333333334
 40
0.5833333333333334
 40
0.5833333333333334
 40
0.5833333333333334
 40
0.6666666666666666
 40
0.6666666666666666
 40
0.6666666666666666
 40
0.6666666666666666
 40
0.75
 40
0.75
 40
0.75
 40
0.75
 40
0.8333333333333334
 40
0.8333333333333334
 40
0.8333333333333334
 40
0.8333333333333334
 40
1.0
 40
1.0
 40
1.0
 40
1.0
 10
-0.35878
 20
8.74526
 30
0.0
 10
-0.35878
 20
8.74526
 30
0.0
 10
-0.35878
 20
8.13919
 30
0.0
 10
-0.35878
 20
8.13919
 30
0.0
 10
-0.35878
 20
8.13919
 30
0.0
 10
-0.35878
 20
8.13919
 30
0.0
 10
-0.48903
 20
8.13919
 30
0.0
 10
-0.48903
 20
8.13919
 30
0.0
 10
-0.48903
 20
8.13919
 30
0.0
 10
-0.48903
 20
8.13919
 30
0.0
 10
-0.48903
 20
8.59809
 30
0.0
 10
-0.48903
 20
8.59809
 30
0.0
 10
-0.48903
 20
8.59809
 30
0.0
 10
-0.49622
 20
8.59174
 30
0.0
 10
-0.50469
 20
8.58581
 30
0.0
 10
-0.51457
 20
8.58016
 30
0.0
 10
-0.51457
 20
8.58016
 30
0.0
 10
-0.5243
 20
8.57452
 30
0.0
 10
-0.53475
 20
8.5693
 30
0.0
 10
-0.54575
 20
8.56478
 30
0.0
 10
-0.54575
 20
8.56478
 30
0.0
 10
-0.55676
 20
8.56027
 30
0.0
 10
-0.56819
 20
8.55646
 30
0.0
 10
-0.58004
 20
8.55321
 30
0.0
 10
-0.58004
 20
8.55321
 30
0.0
 10
-0.5919
 20
8.55011
 30
0.0
 10
-0.60361
 20
8.54785
 30
0.0
 10
-0.61518
 20
8.54644
 30
0.0
 10
-0.61518
 20
8.54644
 30
0.0
 10
-0.61518
 20
8.54644
 30
0.0
 10
-0.61518
 20
8.65636
 30
0.0
 10
-0.61518
 20
8.65636
 30
0.0
 10
-0.61518
 20
8.65636
 30
0.0
 10
-0.58131
 20
8.66624
 30
0.0
 10
-0.54928
 20
8.67894
 30
0.0
 10
-0.51922
 20
8.69446
 30
0.0
 10
-0.51922
 20
8.69446
 30
0.0
 10
-0.48917
 20
8.70985
 30
0.0
 10
-0.46207
 20
8.72678
 30
0.0
 10
-0.4378
 20
8.74526
 30
0.0
 10
-0.4378
 20
8.74526
 30
0.0
 10
-0.4378
 20
8.74526
 30
0.0
 10
-0.35878
 20
8.74526
 30
0.0
 10
-0.35878
 20
8.74526
 30
0.0
  0
SPLINE
  5
45
330
1F
100
AcDbEntity
  8
Layer 1
 62
     5
370
     9
100
AcDbSpline
210
0.0
220
0.0
230
1.0
 70
    11
 71
     3
 72
   116
 73
   112
 74
     0
 42
0.0000000001
 43
0.0000000001
 12
1.0
 22
0.0
 32
0.0
 13
1.0
 23
0.0
 33
0.0
 40
0.0
 40
0.0
 40
0.0
 40
0.0
 40
0.0344827586206897
 40
0.0344827586206897
 40
0.0344827586206897
 40
0.0344827586206897
 40
0.0689655172413793
 40
0.0689655172413793
 40
0.0689655172413793
 40
0.0689655172413793
 40
0.103448275862069
 40
0.103448275862069
 40
0.103448275862069
 40
0.103448275862069
 40
0.1379310344827586
 40
0.1379310344827586
 40
0.1379310344827586
 40
0.1379310344827586
 40
0.1724137931034483
 40
0.1724137931034483
 40
0.1724137931034483
 40
0.1724137931034483
 40
0.2068965517241379
 40
0.2068965517241379
 40
0.2068965517241379
 40
0.2068965517241379
 40
0.2413793103448276
 40
0.2413793103448276
 40
0.2413793103448276
 40
0.2413793103448276
 40
0.2758620689655172
 40
0.2758620689655172
 40
0.2758620689655172
 40
0.2758620689655172
 40
0.3103448275862069
 40
0.3103448275862069
 40
0.3103448275862069
 40
0.3103448275862069
 40
0.3448275862068966
 40
0.3448275862068966
 40
0.3448275862068966
 40
0.3448275862068966
 40
0.3793103448275862
 40
0.3793103448275862
 40
0.3793103448275862
 40
0.3793103448275862
 40
0.4137931034482759
 40
0.4137931034482759
 40
0.4137931034482759
 40
0.4137931034482759
 40
0.4482758620689655
 40
0.4482758620689655
 40
0.4482758620689655
 40
0.4482758620689655
 40
0.4827586206896552
 40
0.4827586206896552
 40
0.4827586206896552
 40
0.4827586206896552
 40
0.5172413793103449
 40
0.5172413793103449
 40
0.5172413793103449
 40
0.5172413793103449
 40
0.5517241379310345
 40
0.5517241379310345
 40
0.5517241379310345
 40
0.5517241379310345
 40
0.5862068965517241
 40
0.5862068965517241
 40
0.5862068965517241
 40
0.5862068965517241
 40
0.6206896551724138
 40
0.6206896551724138
 40
0.6206896551724138
 40
0.6206896551724138
 40
0.6551724137931034
 40
0.6551724137931034
 40
0.6551724137931034
 40
0.6551724137931034
 40
0.6896551724137931
 40
0.6896551724137931
 40
0.6896551724137931
 40
0.6896551724137931
 40
0.7241379310344828
 40
0.7241379310344828
 40
0.7241379310344828
 40
0.7241379310344828
 40
0.7586206896551724
 40
0.7586206896551724
 40
0.7586206896551724
 40
0.7586206896551724
 40
0.7931034482758621
 40
0.7931034482758621
 40
0.7931034482758621
 40
0.7931034482758621
 40
0.8275862068965517
 40
0.8275862068965517
 40
0.8275862068965517
 40
0.8275862068965517
 40
0.8620689655172413
 40
0.8620689655172413
 40
0.8620689655172413
 40
0.8620689655172413
 40
0.896551724137931
 40
0.896551724137931
 40
0.896551724137931
 40
0.896551724137931
 40
0.9310344827586207
 40
0.9310344827586207
 40
0.9310344827586207
 40
0.9310344827586207
 40
1.0
 40
1.0
 40
1.0
 40
1.0
 10
-0.18281
 20
8.29879
 30
0.0
 10
-0.18281
 20
8.3153
 30
0.0
 10
-0.18041
 20
8.33124
 30
0.0
 10
-0.17547
 20
8.34648
 30
0.0
 10
-0.17547
 20
8.34648
 30
0.0
 10
-0.17067
 20
8.36186
 30
0.0
 10
-0.16348
 20
8.37598
 30
0.0
 10
-0.15388
 20
8.3891
 30
0.0
 10
-0.15388
 20
8.3891
 30
0.0
 10
-0.14415
 20
8.40222
 30
0.0
 10
-0.13215
 20
8.41393
 30
0.0
 10
-0.11762
 20
8.42424
 30
0.0
 10
-0.11762
 20
8.42424
 30
0.0
 10
-0.10322
 20
8.43454
 30
0.0
 10
-0.08615
 20
8.443
 30
0.0
 10
-0.06653
 20
8.44964
 30
0.0
 10
-0.06653
 20
8.44964
 30
0.0
 10
-0.09659
 20
8.46459
 30
0.0
 10
-0.11987
 20
8.48364
 30
0.0
 10
-0.13638
 20
8.50693
 30
0.0
 10
-0.13638
 20
8.50693
 30
0.0
 10
-0.15304
 20
8.53021
 30
0.0
 10
-0.16122
 20
8.55603
 30
0.0
 10
-0.16122
 20
8.5844
 30
0.0
 10
-0.16122
 20
8.5844
 30
0.0
 10
-0.16122
 20
8.60698
 30
0.0
 10
-0.15656
 20
8.628
 30
0.0
 10
-0.14697
 20
8.64733
 30
0.0
 10
-0.14697
 20
8.64733
 30
0.0
 10
-0.13751
 20
8.66652
 30
0.0
 10
-0.12439
 20
8.68318
 30
0.0
 10
-0.10746
 20
8.69729
 30
0.0
 10
-0.10746
 20
8.69729
 30
0.0
 10
-0.09066
 20
8.7114
 30
0.0
 10
-0.07063
 20
8.72226
 30
0.0
 10
-0.04734
 20
8.73017
 30
0.0
 10
-0.04734
 20
8.73017
 30
0.0
 10
-0.02406
 20
8.73807
 30
0.0
 10
0.00134
 20
8.74202
 30
0.0
 10
0.02886
 20
8.74202
 30
0.0
 10
0.02886
 20
8.74202
 30
0.0
 10
0.05708
 20
8.74202
 30
0.0
 10
0.08276
 20
8.73807
 30
0.0
 10
0.10619
 20
8.73017
 30
0.0
 10
0.10619
 20
8.73017
 30
0.0
 10
0.12961
 20
8.72226
 30
0.0
 10
0.14979
 20
8.7114
 30
0.0
 10
0.16672
 20
8.69757
 30
0.0
 10
0.16672
 20
8.69757
 30
0.0
 10
0.1838
 20
8.6836
 30
0.0
 10
0.19692
 20
8.66709
 30
0.0
 10
0.20623
 20
8.64804
 30
0.0
 10
0.20623
 20
8.64804
 30
0.0
 10
0.21569
 20
8.62913
 30
0.0
 10
0.22035
 20
8.60839
 30
0.0
 10
0.22035
 20
8.58609
 30
0.0
 10
0.22035
 20
8.58609
 30
0.0
 10
0.22035
 20
8.55801
 30
0.0
 10
0.21146
 20
8.53247
 30
0.0
 10
0.19382
 20
8.50947
 30
0.0
 10
0.19382
 20
8.50947
 30
0.0
 10
0.17618
 20
8.48632
 30
0.0
 10
0.15191
 20
8.46742
 30
0.0
 10
0.12072
 20
8.4526
 30
0.0
 10
0.12072
 20
8.4526
 30
0.0
 10
0.14005
 20
8.44597
 30
0.0
 10
0.15699
 20
8.4375
 30
0.0
 10
0.17152
 20
8.4272
 30
0.0
 10
0.17152
 20
8.4272
 30
0.0
 10
0.1862
 20
8.41676
 30
0.0
 10
0.19847
 20
8.40504
 30
0.0
 10
0.20835
 20
8.39178
 30
0.0
 10
0.20835
 20
8.39178
 30
0.0
 10
0.21823
 20
8.37852
 30
0.0
 10
0.22571
 20
8.36412
 30
0.0
 10
0.23065
 20
8.3486
 30
0.0
 10
0.23065
 20
8.3486
 30
0.0
 10
0.23559
 20
8.33308
 30
0.0
 10
0.23813
 20
8.31685
 30
0.0
 10
0.23813
 20
8.30006
 30
0.0
 10
0.23813
 20
8.30006
 30
0.0
 10
0.23813
 20
8.27466
 30
0.0
 10
0.23305
 20
8.25151
 30
0.0
 10
0.22275
 20
8.23077
 30
0.0
 10
0.22275
 20
8.23077
 30
0.0
 10
0.21259
 20
8.21003
 30
0.0
 10
0.19819
 20
8.19211
 30
0.0
 10
0.17956
 20
8.17701
 30
0.0
 10
0.17956
 20
8.17701
 30
0.0
 10
0.16094
 20
8.16205
 30
0.0
 10
0.13878
 20
8.15034
 30
0.0
 10
0.1131
 20
8.14201
 30
0.0
 10
0.1131
 20
8.14201
 30
0.0
 10
0.08728
 20
8.13383
 30
0.0
 10
0.05877
 20
8.12974
 30
0.0
 10
0.02773
 20
8.12974
 30
0.0
 10
0.02773
 20
8.12974
 30
0.0
 10
-0.00289
 20
8.12974
 30
0.0
 10
-0.03111
 20
8.13369
 30
0.0
 10
-0.0568
 20
8.14187
 30
0.0
 10
-0.0568
 20
8.14187
 30
0.0
 10
-0.08262
 20
8.15006
 30
0.0
 10
-0.10478
 20
8.16149
 30
0.0
 10
-0.1234
 20
8.17644
 30
0.0
 10
-0.1234
 20
8.17644
 30
0.0
 10
-0.14203
 20
8.19126
 30
0.0
 10
-0.15656
 20
8.20918
 30
0.0
 10
-0.16701
 20
8.22992
 30
0.0
 10
-0.16701
 20
8.22992
 30
0.0
 10
-0.17759
 20
8.25081
 30
0.0
 10
-0.18281
 20
8.27367
 30
0.0
 10
-0.18281
 20
8.29879
 30
0.0
  0
SPLINE
  5
46
330
1F
100
AcDbEntity
  8
Layer 1
 62
     5
370
     9
100
AcDbSpline
210
0.0
220
0.0
230
1.0
 70
    11
 71
     3
 72
    68
 73
    64
 74
     0
 42
0.0000000001
 43
0.0000000001
 12
1.0
 22
0.0
 32
0.0
 13
1.0
 23
0.0
 33
0.0
 40
0.0
 40
0.0
 40
0.0
 40
0.0
 40
0.0588235294117647
 40
0.0588235294117647
 40
0.0588235294117647
 40
0.0588235294117647
 40
0.1176470588235294
 40
0.1176470588235294
 40
0.1176470588235294
 40
0.1176470588235294
 40
0.1764705882352941
 40
0.1764705882352941
 40
0.1764705882352941
 40
0.1764705882352941
 40
0.2352941176470588
 40
0.2352941176470588
 40
0.2352941176470588
 40
0.2352941176470588
 40
0.2941176470588235
 40
0.2941176470588235
 40
0.2941176470588235
 40
0.2941176470588235
 40
0.3529411764705883
 40
0.3529411764705883
 40
0.3529411764705883
 40
0.3529411764705883
 40
0.4117647058823529
 40
0.4117647058823529
 40
0.4117647058823529
 40
0.4117647058823529
 40
0.4705882352941176
 40
0.4705882352941176
 40
0.4705882352941176
 40
0.4705882352941176
 40
0.5294117647058824
 40
0.5294117647058824
 40
0.5294117647058824
 40
0.5294117647058824
 40
0.5882352941176471
 40
0.5882352941176471
 40
0.5882352941176471
 40
0.5882352941176471
 40
0.6470588235294118
 40
0.6470588235294118
 40
0.6470588235294118
 40
0.6470588235294118
 40
0.7058823529411765
 40
0.7058823529411765
 40
0.7058823529411765
 40
0.7058823529411765
 40
0.7647058823529411
 40
0.7647058823529411
 40
0.7647058823529411
 40
0.7647058823529411
 40
0.8235294117647058
 40
0.8235294117647058
 40
0.8235294117647058
 40
0.8235294117647058
 40
0.8823529411764706
 40
0.8823529411764706
 40
0.8823529411764706
 40
0.8823529411764706
 40
1.0
 40
1.0
 40
1.0
 40
1.0
 10
-0.0592
 20
8.30994
 30
0.0
 10
-0.0592
 20
8.29639
 30
0.0
 10
-0.05708
 20
8.28425
 30
0.0
 10
-0.05299
 20
8.27353
 30
0.0
 10
-0.05299
 20
8.27353
 30
0.0
 10
-0.04875
 20
8.2628
 30
0.0
 10
-0.04283
 20
8.25377
 30
0.0
 10
-0.03521
 20
8.24629
 30
0.0
 10
-0.03521
 20
8.24629
 30
0.0
 10
-0.02745
 20
8.23881
 30
0.0
 10
-0.01827
 20
8.23317
 30
0.0
 10
-0.00769
 20
8.22908
 30
0.0
 10
-0.00769
 20
8.22908
 30
0.0
 10
0.00289
 20
8.22513
 30
0.0
 10
0.01489
 20
8.22315
 30
0.0
 10
0.02815
 20
8.22315
 30
0.0
 10
0.02815
 20
8.22315
 30
0.0
 10
0.04071
 20
8.22315
 30
0.0
 10
0.05242
 20
8.22513
 30
0.0
 10
0.06301
 20
8.22936
 30
0.0
 10
0.06301
 20
8.22936
 30
0.0
 10
0.07359
 20
8.23345
 30
0.0
 10
0.08276
 20
8.23924
 30
0.0
 10
0.09052
 20
8.24672
 30
0.0
 10
0.09052
 20
8.24672
 30
0.0
 10
0.09828
 20
8.25405
 30
0.0
 10
0.10435
 20
8.26323
 30
0.0
 10
0.10873
 20
8.27395
 30
0.0
 10
0.10873
 20
8.27395
 30
0.0
 10
0.1131
 20
8.28468
 30
0.0
 10
0.11536
 20
8.29667
 30
0.0
 10
0.11536
 20
8.30994
 30
0.0
 10
0.11536
 20
8.30994
 30
0.0
 10
0.11536
 20
8.32179
 30
0.0
 10
0.11324
 20
8.33308
 30
0.0
 10
0.10915
 20
8.3438
 30
0.0
 10
0.10915
 20
8.3438
 30
0.0
 10
0.10492
 20
8.35453
 30
0.0
 10
0.09899
 20
8.36384
 30
0.0
 10
0.09137
 20
8.37174
 30
0.0
 10
0.09137
 20
8.37174
 30
0.0
 10
0.08361
 20
8.37964
 30
0.0
 10
0.07444
 20
8.38585
 30
0.0
 10
0.06385
 20
8.39051
 30
0.0
 10
0.06385
 20
8.39051
 30
0.0
 10
0.05327
 20
8.39517
 30
0.0
 10
0.04128
 20
8.39757
 30
0.0
 10
0.02815
 20
8.39757
 30
0.0
 10
0.02815
 20
8.39757
 30
0.0
 10
0.01573
 20
8.39757
 30
0.0
 10
0.00416
 20
8.39545
 30
0.0
 10
-0.0067
 20
8.39122
 30
0.0
 10
-0.0067
 20
8.39122
 30
0.0
 10
-0.01743
 20
8.38684
 30
0.0
 10
-0.0266
 20
8.38077
 30
0.0
 10
-0.03436
 20
8.37301
 30
0.0
 10
-0.03436
 20
8.37301
 30
0.0
 10
-0.04212
 20
8.36511
 30
0.0
 10
-0.04805
 20
8.3558
 30
0.0
 10
-0.05256
 20
8.34507
 30
0.0
 10
-0.05256
 20
8.34507
 30
0.0
 10
-0.05694
 20
8.33435
 30
0.0
 10
-0.0592
 20
8.32264
 30
0.0
 10
-0.0592
 20
8.30994
 30
0.0
  0
SPLINE
  5
47
330
1F
100
AcDbEntity
  8
Layer 1
 62
     5
370
     9
100
AcDbSpline
210
0.0
220
0.0
230
1.0
 70
    11
 71
     3
 72
    68
 73
    64
 74
     0
 42
0.0000000001
 43
0.0000000001
 12
1.0
 22
0.0
 32
0.0
 13
1.0
 23
0.0
 33
0.0
 40
0.0
 40
0.0
 40
0.0
 40
0.0
 40
0.0588235294117647
 40
0.0588235294117647
 40
0.0588235294117647
 40
0.0588235294117647
 40
0.1176470588235294
 40
0.1176470588235294
 40
0.1176470588235294
 40
0.1176470588235294
 40
0.1764705882352941
 40
0.1764705882352941
 40
0.1764705882352941
 40
0.1764705882352941
 40
0.2352941176470588
 40
0.2352941176470588
 40
0.2352941176470588
 40
0.2352941176470588
 40
0.2941176470588235
 40
0.2941176470588235
 40
0.2941176470588235
 40
0.2941176470588235
 40
0.3529411764705883
 40
0.3529411764705883
 40
0.3529411764705883
 40
0.3529411764705883
 40
0.4117647058823529
 40
0.4117647058823529
 40
0.4117647058823529
 40
0.4117647058823529
 40
0.4705882352941176
 40
0.4705882352941176
 40
0.4705882352941176
 40
0.4705882352941176
 40
0.5294117647058824
 40
0.5294117647058824
 40
0.5294117647058824
 40
0.5294117647058824
 40
0.5882352941176471
 40
0.5882352941176471
 40
0.5882352941176471
 40
0.5882352941176471
 40
0.6470588235294118
 40
0.6470588235294118
 40
0.6470588235294118
 40
0.6470588235294118
 40
0.7058823529411765
 40
0.7058823529411765
 40
0.7058823529411765
 40
0.7058823529411765
 40
0.7647058823529411
 40
0.7647058823529411
 40
0.7647058823529411
 40
0.7647058823529411
 40
0.8235294117647058
 40
0.8235294117647058
 40
0.8235294117647058
 40
0.8235294117647058
 40
0.8823529411764706
 40
0.8823529411764706
 40
0.8823529411764706
 40
0.8823529411764706
 40
1.0
 40
1.0
 40
1.0
 40
1.0
 10
-0.04099
 20
8.5724
 30
0.0
 10
-0.04099
 20
8.56196
 30
0.0
 10
-0.03916
 20
8.55208
 30
0.0
 10
-0.03535
 20
8.54291
 30
0.0
 10
-0.03535
 20
8.54291
 30
0.0
 10
-0.03168
 20
8.5336
 30
0.0
 10
-0.0266
 20
8.52569
 30
0.0
 10
-0.02025
 20
8.51892
 30
0.0
 10
-0.02025
 20
8.51892
 30
0.0
 10
-0.0139
 20
8.51215
 30
0.0
 10
-0.00642
 20
8.50693
 30
0.0
 10
0.00219
 20
8.50298
 30
0.0
 10
0.00219
 20
8.50298
 30
0.0
 10
0.01094
 20
8.49917
 30
0.0
 10
0.02011
 20
8.49719
 30
0.0
 10
0.0297
 20
8.49719
 30
0.0
 10
0.0297
 20
8.49719
 30
0.0
 10
0.03972
 20
8.49719
 30
0.0
 10
0.0489
 20
8.49917
 30
0.0
 10
0.0575
 20
8.50298
 30
0.0
 10
0.0575
 20
8.50298
 30
0.0
 10
0.06597
 20
8.50693
 30
0.0
 10
0.07345
 20
8.51229
 30
0.0
 10
0.07994
 20
8.51906
 30
0.0
 10
0.07994
 20
8.51906
 30
0.0
 10
0.08643
 20
8.52598
 30
0.0
 10
0.09151
 20
8.53402
 30
0.0
 10
0.09532
 20
8.54305
 30
0.0
 10
0.09532
 20
8.54305
 30
0.0
 10
0.09899
 20
8.55222
 30
0.0
 10
0.10082
 20
8.56196
 30
0.0
 10
0.10082
 20
8.5724
 30
0.0
 10
0.10082
 20
8.5724
 30
0.0
 10
0.10082
 20
8.58327
 30
0.0
 10
0.09899
 20
8.59315
 30
0.0
 10
0.09546
 20
8.60246
 30
0.0
 10
0.09546
 20
8.60246
 30
0.0
 10
0.09193
 20
8.61163
 30
0.0
 10
0.08685
 20
8.61968
 30
0.0
 10
0.08036
 20
8.62645
 30
0.0
 10
0.08036
 20
8.62645
 30
0.0
 10
0.07387
 20
8.63322
 30
0.0
 10
0.06639
 20
8.63844
 30
0.0
 10
0.05764
 20
8.64225
 30
0.0
 10
0.05764
 20
8.64225
 30
0.0
 10
0.04904
 20
8.6462
 30
0.0
 10
0.03972
 20
8.64804
 30
0.0
 10
0.0297
 20
8.64804
 30
0.0
 10
0.0297
 20
8.64804
 30
0.0
 10
0.01926
 20
8.64804
 30
0.0
 10
0.00967
 20
8.64606
 30
0.0
 10
0.00106
 20
8.64211
 30
0.0
 10
0.00106
 20
8.64211
 30
0.0
 10
-0.00769
 20
8.63816
 30
0.0
 10
-0.01517
 20
8.6328
 30
0.0
 10
-0.02138
 20
8.62603
 30
0.0
 10
-0.02138
 20
8.62603
 30
0.0
 10
-0.02759
 20
8.61925
 30
0.0
 10
-0.03238
 20
8.61121
 30
0.0
 10
-0.03577
 20
8.60204
 30
0.0
 10
-0.03577
 20
8.60204
 30
0.0
 10
-0.0393
 20
8.59272
 30
0.0
 10
-0.04099
 20
8.58299
 30
0.0
 10
-0.04099
 20
8.5724
 30
0.0
  0
SPLINE
  5
48
330
1F
100
AcDbEntity
  8
Layer 1
 62
     5
370
     9
100
AcDbSpline
210
0.0
220
0.0
230
1.0
 70
    11
 71
     3
 72
    48
 73
    44
 74
     0
 42
0.0000000001
 43
0.0000000001
 12
1.0
 22
0.0
 32
0.0
 13
1.0
 23
0.0
 33
0.0
 40
0.0
 40
0.0
 40
0.0
 40
0.0
 40
0.0833333333333333
 40
0.0833333333333333
 40
0.0833333333333333
 40
0.0833333333333333
 40
0.1666666666666667
 40
0.1666666666666667
 40
0.1666666666666667
 40
0.1666666666666667
 40
0.25
 40
0.25
 40
0.25
 40
0.25
 40
0.3333333333333333
 40
0.3333333333333333
 40
0.3333333333333333
 40
0.3333333333333333
 40
0.4166666666666667
 40
0.4166666666666667
 40
0.4166666666666667
 40
0.4166666666666667
 40
0.5
 40
0.5
 40
0.5
 40
0.5
 40
0.5833333333333334
 40
0.5833333333333334
 40
0.5833333333333334
 40
0.5833333333333334
 40
0.6666666666666666
 40
0.6666666666666666
 40
0.6666666666666666
 40
0.6666666666666666
 40
0.75
 40
0.75
 40
0.75
 40
0.75
 40
0.8333333333333334
 40
0.8333333333333334
 40
0.8333333333333334
 40
0.8333333333333334
 40
1.0
 40
1.0
 40
1.0
 40
1.0
 10
0.61518
 20
8.74526
 30
0.0
 10
0.61518
 20
8.74526
 30
0.0
 10
0.61518
 20
8.13919
 30
0.0
 10
0.61518
 20
8.13919
 30
0.0
 10
0.61518
 20
8.13919
 30
0.0
 10
0.61518
 20
8.13919
 30
0.0
 10
0.48493
 20
8.13919
 30
0.0
 10
0.48493
 20
8.13919
 30
0.0
 10
0.48493
 20
8.13919
 30
0.0
 10
0.48493
 20
8.13919
 30
0.0
 10
0.48493
 20
8.59809
 30
0.0
 10
0.48493
 20
8.59809
 30
0.0
 10
0.48493
 20
8.59809
 30
0.0
 10
0.47774
 20
8.59174
 30
0.0
 10
0.46927
 20
8.58581
 30
0.0
 10
0.45939
 20
8.58016
 30
0.0
 10
0.45939
 20
8.58016
 30
0.0
 10
0.44966
 20
8.57452
 30
0.0
 10
0.43921
 20
8.5693
 30
0.0
 10
0.42821
 20
8.56478
 30
0.0
 10
0.42821
 20
8.56478
 30
0.0
 10
0.4172
 20
8.56027
 30
0.0
 10
0.40577
 20
8.55646
 30
0.0
 10
0.39392
 20
8.55321
 30
0.0
 10
0.39392
 20
8.55321
 30
0.0
 10
0.38206
 20
8.55011
 30
0.0
 10
0.37035
 20
8.54785
 30
0.0
 10
0.35878
 20
8.54644
 30
0.0
 10
0.35878
 20
8.54644
 30
0.0
 10
0.35878
 20
8.54644
 30
0.0
 10
0.35878
 20
8.65636
 30
0.0
 10
0.35878
 20
8.65636
 30
0.0
 10
0.35878
 20
8.65636
 30
0.0
 10
0.39265
 20
8.66624
 30
0.0
 10
0.42468
 20
8.67894
 30
0.0
 10
0.45474
 20
8.69446
 30
0.0
 10
0.45474
 20
8.69446
 30
0.0
 10
0.48479
 20
8.70985
 30
0.0
 10
0.51189
 20
8.72678
 30
0.0
 10
0.53616
 20
8.74526
 30
0.0
 10
0.53616
 20
8.74526
 30
0.0
 10
0.53616
 20
8.74526
 30
0.0
 10
0.61518
 20
8.74526
 30
0.0
 10
0.61518
 20
8.74526
 30
0.0
  0
SPLINE
  5
49
330
1F
100
AcDbEntity
  8
Layer 1
 62
     5
370
     9
100
AcDbSpline
210
0.0
220
0.0
230
1.0
 70
    11
 71
     3
 72
    48
 73
    44
 74
     0
 42
0.0000000001
 43
0.0000000001
 12
1.0
 22
0.0
 32
0.0
 13
1.0
 23
0.0
 33
0.0
 40
0.0
 40
0.0
 40
0.0
 40
0.0
 40
0.0833333333333333
 40
0.0833333333333333
 40
0.0833333333333333
 40
0.0833333333333333
 40
0.1666666666666667
 40
0.1666666666666667
 40
0.1666666666666667
 40
0.1666666666666667
 40
0.25
 40
0.25
 40
0.25
 40
0.25
 40
0.3333333333333333
 40
0.3333333333333333
 40
0.3333333333333333
 40
0.3333333333333333
 40
0.4166666666666667
 40
0.4166666666666667
 40
0.4166666666666667
 40
0.4166666666666667
 40
0.5
 40
0.5
 40
0.5
 40
0.5
 40
0.5833333333333334
 40
0.5833333333333334
 40
0.5833333333333334
 40
0.5833333333333334
 40
0.6666666666666666
 40
0.6666666666666666
 40
0.6666666666666666
 40
0.6666666666666666
 40
0.75
 40
0.75
 40
0.75
 40
0.75
 40
0.8333333333333334
 40
0.8333333333333334
 40
0.8333333333333334
 40
0.8333333333333334
 40
1.0
 40
1.0
 40
1.0
 40
1.0
 10
-0.35878
 20
6.87026
 30
0.0
 10
-0.35878
 20
6.87026
 30
0.0
 10
-0.35878
 20
6.26419
 30
0.0
 10
-0.35878
 20
6.26419
 30
0.0
 10
-0.35878
 20
6.26419
 30
0.0
 10
-0.35878
 20
6.26419
 30
0.0
 10
-0.48903
 20
6.26419
 30
0.0
 10
-0.48903
 20
6.26419
 30
0.0
 10
-0.48903
 20
6.26419
 30
0.0
 10
-0.48903
 20
6.26419
 30
0.0
 10
-0.48903
 20
6.72309
 30
0.0
 10
-0.48903
 20
6.72309
 30
0.0
 10
-0.48903
 20
6.72309
 30
0.0
 10
-0.49622
 20
6.71674
 30
0.0
 10
-0.50469
 20
6.71081
 30
0.0
 10
-0.51457
 20
6.70516
 30
0.0
 10
-0.51457
 20
6.70516
 30
0.0
 10
-0.5243
 20
6.69952
 30
0.0
 10
-0.53475
 20
6.6943
 30
0.0
 10
-0.54575
 20
6.68978
 30
0.0
 10
-0.54575
 20
6.68978
 30
0.0
 10
-0.55676
 20
6.68527
 30
0.0
 10
-0.56819
 20
6.68146
 30
0.0
 10
-0.58004
 20
6.67821
 30
0.0
 10
-0.58004
 20
6.67821
 30
0.0
 10
-0.5919
 20
6.67511
 30
0.0
 10
-0.60361
 20
6.67285
 30
0.0
 10
-0.61518
 20
6.67144
 30
0.0
 10
-0.61518
 20
6.67144
 30
0.0
 10
-0.61518
 20
6.67144
 30
0.0
 10
-0.61518
 20
6.78136
 30
0.0
 10
-0.61518
 20
6.78136
 30
0.0
 10
-0.61518
 20
6.78136
 30
0.0
 10
-0.58131
 20
6.79124
 30
0.0
 10
-0.54928
 20
6.80394
 30
0.0
 10
-0.51922
 20
6.81946
 30
0.0
 10
-0.51922
 20
6.81946
 30
0.0
 10
-0.48917
 20
6.83485
 30
0.0
 10
-0.46207
 20
6.85178
 30
0.0
 10
-0.4378
 20
6.87026
 30
0.0
 10
-0.4378
 20
6.87026
 30
0.0
 10
-0.4378
 20
6.87026
 30
0.0
 10
-0.35878
 20
6.87026
 30
0.0
 10
-0.35878
 20
6.87026
 30
0.0
  0
SPLINE
  5
4A
330
1F
100
AcDbEntity
  8
Layer 1
 62
     5
370
     9
100
AcDbSpline
210
0.0
220
0.0
230
1.0
 70
    11
 71
     3
 72
    96
 73
    92
 74
     0
 42
0.0000000001
 43
0.0000000001
 12
1.0
 22
0.0
 32
0.0
 13
1.0
 23
0.0
 33
0.0
 40
0.0
 40
0.0
 40
0.0
 40
0.0
 40
0.0416666666666667
 40
0.0416666666666667
 40
0.0416666666666667
 40
0.0416666666666667
 40
0.0833333333333333
 40
0.0833333333333333
 40
0.0833333333333333
 40
0.0833333333333333
 40
0.125
 40
0.125
 40
0.125
 40
0.125
 40
0.1666666666666667
 40
0.1666666666666667
 40
0.1666666666666667
 40
0.1666666666666667
 40
0.2083333333333333
 40
0.2083333333333333
 40
0.2083333333333333
 40
0.2083333333333333
 40
0.25
 40
0.25
 40
0.25
 40
0.25
 40
0.2916666666666667
 40
0.2916666666666667
 40
0.2916666666666667
 40
0.2916666666666667
 40
0.3333333333333333
 40
0.3333333333333333
 40
0.3333333333333333
 40
0.3333333333333333
 40
0.375
 40
0.375
 40
0.375
 40
0.375
 40
0.4166666666666667
 40
0.4166666666666667
 40
0.4166666666666667
 40
0.4166666666666667
 40
0.4583333333333333
 40
0.4583333333333333
 40
0.4583333333333333
 40
0.4583333333333333
 40
0.5
 40
0.5
 40
0.5
 40
0.5
 40
0.5416666666666666
 40
0.5416666666666666
 40
0.5416666666666666
 40
0.5416666666666666
 40
0.5833333333333334
 40
0.5833333333333334
 40
0.5833333333333334
 40
0.5833333333333334
 40
0.625
 40
0.625
 40
0.625
 40
0.625
 40
0.6666666666666666
 40
0.6666666666666666
 40
0.6666666666666666
 40
0.6666666666666666
 40
0.7083333333333334
 40
0.7083333333333334
 40
0.7083333333333334
 40
0.7083333333333334
 40
0.75
 40
0.75
 40
0.75
 40
0.75
 40
0.7916666666666666
 40
0.7916666666666666
 40
0.7916666666666666
 40
0.7916666666666666
 40
0.8333333333333334
 40
0.8333333333333334
 40
0.8333333333333334
 40
0.8333333333333334
 40
0.875
 40
0.875
 40
0.875
 40
0.875
 40
0.9166666666666666
 40
0.9166666666666666
 40
0.9166666666666666
 40
0.9166666666666666
 40
1.0
 40
1.0
 40
1.0
 40
1.0
 10
-0.16743
 20
6.28366
 30
0.0
 10
-0.16743
 20
6.28366
 30
0.0
 10
-0.16743
 20
6.39726
 30
0.0
 10
-0.16743
 20
6.39726
 30
0.0
 10
-0.16743
 20
6.39726
 30
0.0
 10
-0.12778
 20
6.36833
 30
0.0
 10
-0.08149
 20
6.35394
 30
0.0
 10
-0.02857
 20
6.35394
 30
0.0
 10
-0.02857
 20
6.35394
 30
0.0
 10
0.00487
 20
6.35394
 30
0.0
 10
0.03083
 20
6.36113
 30
0.0
 10
0.04932
 20
6.37539
 30
0.0
 10
0.04932
 20
6.37539
 30
0.0
 10
0.06795
 20
6.38978
 30
0.0
 10
0.07726
 20
6.40968
 30
0.0
 10
0.07726
 20
6.43536
 30
0.0
 10
0.07726
 20
6.43536
 30
0.0
 10
0.07726
 20
6.46175
 30
0.0
 10
0.06583
 20
6.48221
 30
0.0
 10
0.04283
 20
6.4966
 30
0.0
 10
0.04283
 20
6.4966
 30
0.0
 10
0.01969
 20
6.51085
 30
0.0
 10
-0.01192
 20
6.51805
 30
0.0
 10
-0.05214
 20
6.51805
 30
0.0
 10
-0.05214
 20
6.51805
 30
0.0
 10
-0.05214
 20
6.51805
 30
0.0
 10
-0.10703
 20
6.51805
 30
0.0
 10
-0.10703
 20
6.51805
 30
0.0
 10
-0.10703
 20
6.51805
 30
0.0
 10
-0.10703
 20
6.51805
 30
0.0
 10
-0.10703
 20
6.6181
 30
0.0
 10
-0.10703
 20
6.6181
 30
0.0
 10
-0.10703
 20
6.6181
 30
0.0
 10
-0.10703
 20
6.6181
 30
0.0
 10
-0.05623
 20
6.6181
 30
0.0
 10
-0.05623
 20
6.6181
 30
0.0
 10
-0.05623
 20
6.6181
 30
0.0
 10
0.02096
 20
6.6181
 30
0.0
 10
0.05948
 20
6.64364
 30
0.0
 10
0.05948
 20
6.695
 30
0.0
 10
0.05948
 20
6.695
 30
0.0
 10
0.05948
 20
6.74326
 30
0.0
 10
0.02985
 20
6.76725
 30
0.0
 10
-0.02942
 20
6.76725
 30
0.0
 10
-0.02942
 20
6.76725
 30
0.0
 10
-0.06907
 20
6.76725
 30
0.0
 10
-0.1076
 20
6.75455
 30
0.0
 10
-0.14513
 20
6.72887
 30
0.0
 10
-0.14513
 20
6.72887
 30
0.0
 10
-0.14513
 20
6.72887
 30
0.0
 10
-0.14513
 20
6.83555
 30
0.0
 10
-0.14513
 20
6.83555
 30
0.0
 10
-0.14513
 20
6.83555
 30
0.0
 10
-0.10351
 20
6.85644
 30
0.0
 10
-0.05496
 20
6.86702
 30
0.0
 10
0.00035
 20
6.86702
 30
0.0
 10
0.00035
 20
6.86702
 30
0.0
 10
0.06103
 20
6.86702
 30
0.0
 10
0.10816
 20
6.85333
 30
0.0
 10
0.14203
 20
6.82596
 30
0.0
 10
0.14203
 20
6.82596
 30
0.0
 10
0.17575
 20
6.79872
 30
0.0
 10
0.19269
 20
6.7633
 30
0.0
 10
0.19269
 20
6.71984
 30
0.0
 10
0.19269
 20
6.71984
 30
0.0
 10
0.19269
 20
6.64237
 30
0.0
 10
0.15332
 20
6.59383
 30
0.0
 10
0.07486
 20
6.57421
 30
0.0
 10
0.07486
 20
6.57421
 30
0.0
 10
0.07486
 20
6.57421
 30
0.0
 10
0.07486
 20
6.57224
 30
0.0
 10
0.07486
 20
6.57224
 30
0.0
 10
0.07486
 20
6.57224
 30
0.0
 10
0.11663
 20
6.56702
 30
0.0
 10
0.14979
 20
6.55178
 30
0.0
 10
0.17406
 20
6.52652
 30
0.0
 10
0.17406
 20
6.52652
 30
0.0
 10
0.19833
 20
6.50126
 30
0.0
 10
0.21047
 20
6.47035
 30
0.0
 10
0.21047
 20
6.43367
 30
0.0
 10
0.21047
 20
6.43367
 30
0.0
 10
0.21047
 20
6.37835
 30
0.0
 10
0.19015
 20
6.33446
 30
0.0
 10
0.14965
 20
6.30229
 30
0.0
 10
0.14965
 20
6.30229
 30
0.0
 10
0.10915
 20
6.26998
 30
0.0
 10
0.05313
 20
6.25389
 30
0.0
 10
-0.01827
 20
6.25389
 30
0.0
 10
-0.01827
 20
6.25389
 30
0.0
 10
-0.07938
 20
6.25389
 30
0.0
 10
-0.12919
 20
6.26377
 30
0.0
 10
-0.16743
 20
6.28366
 30
0.0
  0
SPLINE
  5
4B
330
1F
100
AcDbEntity
  8
Layer 1
 62
     5
370
     9
100
AcDbSpline
210
0.0
220
0.0
230
1.0
 70
    11
 71
     3
 72
   104
 73
   100
 74
     0
 42
0.0000000001
 43
0.0000000001
 12
1.0
 22
0.0
 32
0.0
 13
1.0
 23
0.0
 33
0.0
 40
0.0
 40
0.0
 40
0.0
 40
0.0
 40
0.0384615384615385
 40
0.0384615384615385
 40
0.0384615384615385
 40
0.0384615384615385
 40
0.0769230769230769
 40
0.0769230769230769
 40
0.0769230769230769
 40
0.0769230769230769
 40
0.1153846153846154
 40
0.1153846153846154
 40
0.1153846153846154
 40
0.1153846153846154
 40
0.1538461538461539
 40
0.1538461538461539
 40
0.1538461538461539
 40
0.1538461538461539
 40
0.1923076923076923
 40
0.1923076923076923
 40
0.1923076923076923
 40
0.1923076923076923
 40
0.2307692307692308
 40
0.2307692307692308
 40
0.2307692307692308
 40
0.2307692307692308
 40
0.2692307692307692
 40
0.2692307692307692
 40
0.2692307692307692
 40
0.2692307692307692
 40
0.3076923076923077
 40
0.3076923076923077
 40
0.3076923076923077
 40
0.3076923076923077
 40
0.3461538461538461
 40
0.3461538461538461
 40
0.3461538461538461
 40
0.3461538461538461
 40
0.3846153846153846
 40
0.3846153846153846
 40
0.3846153846153846
 40
0.3846153846153846
 40
0.4230769230769231
 40
0.4230769230769231
 40
0.4230769230769231
 40
0.4230769230769231
 40
0.4615384615384616
 40
0.4615384615384616
 40
0.4615384615384616
 40
0.4615384615384616
 40
0.5
 40
0.5
 40
0.5
 40
0.5
 40
0.5384615384615384
 40
0.5384615384615384
 40
0.5384615384615384
 40
0.5384615384615384
 40
0.5769230769230769
 40
0.5769230769230769
 40
0.5769230769230769
 40
0.5769230769230769
 40
0.6153846153846154
 40
0.6153846153846154
 40
0.6153846153846154
 40
0.6153846153846154
 40
0.6538461538461539
 40
0.6538461538461539
 40
0.6538461538461539
 40
0.6538461538461539
 40
0.6923076923076923
 40
0.6923076923076923
 40
0.6923076923076923
 40
0.6923076923076923
 40
0.7307692307692307
 40
0.7307692307692307
 40
0.7307692307692307
 40
0.7307692307692307
 40
0.7692307692307693
 40
0.7692307692307693
 40
0.7692307692307693
 40
0.7692307692307693
 40
0.8076923076923077
 40
0.8076923076923077
 40
0.8076923076923077
 40
0.8076923076923077
 40
0.8461538461538461
 40
0.8461538461538461
 40
0.8461538461538461
 40
0.8461538461538461
 40
0.8846153846153846
 40
0.8846153846153846
 40
0.8846153846153846
 40
0.8846153846153846
 40
0.9230769230769231
 40
0.9230769230769231
 40
0.9230769230769231
 40
0.9230769230769231
 40
1.0
 40
1.0
 40
1.0
 40
1.0
 10
0.73005
 20
6.46132
 30
0.0
 10
0.73005
 20
6.43211
 30
0.0
 10
0.72497
 20
6.40488
 30
0.0
 10
0.71481
 20
6.37948
 30
0.0
 10
0.71481
 20
6.37948
 30
0.0
 10
0.7045
 20
6.35422
 30
0.0
 10
0.69039
 20
6.33221
 30
0.0
 10
0.67219
 20
6.31358
 30
0.0
 10
0.67219
 20
6.31358
 30
0.0
 10
0.65399
 20
6.29495
 30
0.0
 10
0.6324
 20
6.28042
 30
0.0
 10
0.60728
 20
6.26983
 30
0.0
 10
0.60728
 20
6.26983
 30
0.0
 10
0.58216
 20
6.25911
 30
0.0
 10
0.55478
 20
6.25389
 30
0.0
 10
0.52501
 20
6.25389
 30
0.0
 10
0.52501
 20
6.25389
 30
0.0
 10
0.49171
 20
6.25389
 30
0.0
 10
0.46179
 20
6.2601
 30
0.0
 10
0.43555
 20
6.27252
 30
0.0
 10
0.43555
 20
6.27252
 30
0.0
 10
0.40916
 20
6.28479
 30
0.0
 10
0.38686
 20
6.30285
 30
0.0
 10
0.36866
 20
6.32642
 30
0.0
 10
0.36866
 20
6.32642
 30
0.0
 10
0.3506
 20
6.34999
 30
0.0
 10
0.33663
 20
6.37891
 30
0.0
 10
0.32703
 20
6.41306
 30
0.0
 10
0.32703
 20
6.41306
 30
0.0
 10
0.31729
 20
6.44721
 30
0.0
 10
0.3125
 20
6.48588
 30
0.0
 10
0.3125
 20
6.5292
 30
0.0
 10
0.3125
 20
6.5292
 30
0.0
 10
0.3125
 20
6.58014
 30
0.0
 10
0.3187
 20
6.62642
 30
0.0
 10
0.33126
 20
6.66791
 30
0.0
 10
0.33126
 20
6.66791
 30
0.0
 10
0.34382
 20
6.7094
 30
0.0
 10
0.36174
 20
6.74482
 30
0.0
 10
0.38503
 20
6.77431
 30
0.0
 10
0.38503
 20
6.77431
 30
0.0
 10
0.40831
 20
6.8038
 30
0.0
 10
0.43653
 20
6.82666
 30
0.0
 10
0.46955
 20
6.84275
 30
0.0
 10
0.46955
 20
6.84275
 30
0.0
 10
0.50271
 20
6.85883
 30
0.0
 10
0.53983
 20
6.86702
 30
0.0
 10
0.58117
 20
6.86702
 30
0.0
 10
0.58117
 20
6.86702
 30
0.0
 10
0.62703
 20
6.86702
 30
0.0
 10
0.66245
 20
6.86152
 30
0.0
 10
0.68785
 20
6.85079
 30
0.0
 10
0.68785
 20
6.85079
 30
0.0
 10
0.68785
 20
6.85079
 30
0.0
 10
0.68785
 20
6.74171
 30
0.0
 10
0.68785
 20
6.74171
 30
0.0
 10
0.68785
 20
6.74171
 30
0.0
 10
0.6578
 20
6.75879
 30
0.0
 10
0.62506
 20
6.76725
 30
0.0
 10
0.5895
 20
6.76725
 30
0.0
 10
0.5895
 20
6.76725
 30
0.0
 10
0.56748
 20
6.76725
 30
0.0
 10
0.54745
 20
6.76302
 30
0.0
 10
0.52953
 20
6.75455
 30
0.0
 10
0.52953
 20
6.75455
 30
0.0
 10
0.5116
 20
6.74595
 30
0.0
 10
0.49622
 20
6.73381
 30
0.0
 10
0.48338
 20
6.71815
 30
0.0
 10
0.48338
 20
6.71815
 30
0.0
 10
0.47068
 20
6.70234
 30
0.0
 10
0.46052
 20
6.68343
 30
0.0
 10
0.45333
 20
6.66128
 30
0.0
 10
0.45333
 20
6.66128
 30
0.0
 10
0.44599
 20
6.63912
 30
0.0
 10
0.44204
 20
6.61429
 30
0.0
 10
0.44147
 20
6.58705
 30
0.0
 10
0.44147
 20
6.58705
 30
0.0
 10
0.44147
 20
6.58705
 30
0.0
 10
0.44401
 20
6.58705
 30
0.0
 10
0.44401
 20
6.58705
 30
0.0
 10
0.44401
 20
6.58705
 30
0.0
 10
0.47209
 20
6.626
 30
0.0
 10
0.51358
 20
6.64533
 30
0.0
 10
0.56833
 20
6.64533
 30
0.0
 10
0.56833
 20
6.64533
 30
0.0
 10
0.59288
 20
6.64533
 30
0.0
 10
0.61518
 20
6.64096
 30
0.0
 10
0.63494
 20
6.63207
 30
0.0
 10
0.63494
 20
6.63207
 30
0.0
 10
0.65483
 20
6.62332
 30
0.0
 10
0.67177
 20
6.6109
 30
0.0
 10
0.68588
 20
6.59467
 30
0.0
 10
0.68588
 20
6.59467
 30
0.0
 10
0.69985
 20
6.57859
 30
0.0
 10
0.71071
 20
6.55925
 30
0.0
 10
0.71847
 20
6.53668
 30
0.0
 10
0.71847
 20
6.53668
 30
0.0
 10
0.72624
 20
6.51396
 30
0.0
 10
0.73005
 20
6.48898
 30
0.0
 10
0.73005
 20
6.46132
 30
0.0
  0
SPLINE
  5
4C
330
1F
100
AcDbEntity
  8
Layer 1
 62
     5
370
     9
100
AcDbSpline
210
0.0
220
0.0
230
1.0
 70
    11
 71
     3
 72
    56
 73
    52
 74
     0
 42
0.0000000001
 43
0.0000000001
 12
1.0
 22
0.0
 32
0.0
 13
1.0
 23
0.0
 33
0.0
 40
0.0
 40
0.0
 40
0.0
 40
0.0
 40
0.0714285714285714
 40
0.0714285714285714
 40
0.0714285714285714
 40
0.0714285714285714
 40
0.1428571428571428
 40
0.1428571428571428
 40
0.1428571428571428
 40
0.1428571428571428
 40
0.2142857142857143
 40
0.2142857142857143
 40
0.2142857142857143
 40
0.2142857142857143
 40
0.2857142857142857
 40
0.2857142857142857
 40
0.2857142857142857
 40
0.2857142857142857
 40
0.3571428571428572
 40
0.3571428571428572
 40
0.3571428571428572
 40
0.3571428571428572
 40
0.4285714285714285
 40
0.4285714285714285
 40
0.4285714285714285
 40
0.4285714285714285
 40
0.5
 40
0.5
 40
0.5
 40
0.5
 40
0.5714285714285714
 40
0.5714285714285714
 40
0.5714285714285714
 40
0.5714285714285714
 40
0.6428571428571429
 40
0.6428571428571429
 40
0.6428571428571429
 40
0.6428571428571429
 40
0.7142857142857143
 40
0.7142857142857143
 40
0.7142857142857143
 40
0.7142857142857143
 40
0.7857142857142857
 40
0.7857142857142857
 40
0.7857142857142857
 40
0.7857142857142857
 40
0.8571428571428571
 40
0.8571428571428571
 40
0.8571428571428571
 40
0.8571428571428571
 40
1.0
 40
1.0
 40
1.0
 40
1.0
 10
0.60234
 20
6.45314
 30
0.0
 10
0.60234
 20
6.51678
 30
0.0
 10
0.57623
 20
6.54867
 30
0.0
 10
0.52416
 20
6.54867
 30
0.0
 10
0.52416
 20
6.54867
 30
0.0
 10
0.51231
 20
6.54867
 30
0.0
 10
0.50159
 20
6.54641
 30
0.0
 10
0.49185
 20
6.54204
 30
0.0
 10
0.49185
 20
6.54204
 30
0.0
 10
0.48225
 20
6.53766
 30
0.0
 10
0.47407
 20
6.53146
 30
0.0
 10
0.46715
 20
6.52341
 30
0.0
 10
0.46715
 20
6.52341
 30
0.0
 10
0.46024
 20
6.51537
 30
0.0
 10
0.45488
 20
6.50591
 30
0.0
 10
0.45121
 20
6.49505
 30
0.0
 10
0.45121
 20
6.49505
 30
0.0
 10
0.44754
 20
6.48418
 30
0.0
 10
0.44556
 20
6.47219
 30
0.0
 10
0.44556
 20
6.45892
 30
0.0
 10
0.44556
 20
6.45892
 30
0.0
 10
0.44556
 20
6.44425
 30
0.0
 10
0.44754
 20
6.4307
 30
0.0
 10
0.45135
 20
6.418
 30
0.0
 10
0.45135
 20
6.418
 30
0.0
 10
0.4553
 20
6.4053
 30
0.0
 10
0.46066
 20
6.39415
 30
0.0
 10
0.46772
 20
6.3847
 30
0.0
 10
0.46772
 20
6.3847
 30
0.0
 10
0.47477
 20
6.37524
 30
0.0
 10
0.4831
 20
6.36762
 30
0.0
 10
0.4927
 20
6.36212
 30
0.0
 10
0.4927
 20
6.36212
 30
0.0
 10
0.50243
 20
6.35662
 30
0.0
 10
0.51316
 20
6.35394
 30
0.0
 10
0.52501
 20
6.35394
 30
0.0
 10
0.52501
 20
6.35394
 30
0.0
 10
0.53686
 20
6.35394
 30
0.0
 10
0.54745
 20
6.35634
 30
0.0
 10
0.55704
 20
6.36113
 30
0.0
 10
0.55704
 20
6.36113
 30
0.0
 10
0.5665
 20
6.36593
 30
0.0
 10
0.57468
 20
6.3727
 30
0.0
 10
0.58145
 20
6.38145
 30
0.0
 10
0.58145
 20
6.38145
 30
0.0
 10
0.58823
 20
6.39006
 30
0.0
 10
0.59331
 20
6.4005
 30
0.0
 10
0.59698
 20
6.41278
 30
0.0
 10
0.59698
 20
6.41278
 30
0.0
 10
0.6005
 20
6.42506
 30
0.0
 10
0.60234
 20
6.43846
 30
0.0
 10
0.60234
 20
6.45314
 30
0.0
  0
SPLINE
  5
4D
330
1F
100
AcDbEntity
  8
Layer 1
 62
     5
370
     9
100
AcDbSpline
210
0.0
220
0.0
230
1.0
 70
    11
 71
     3
 72
    48
 73
    44
 74
     0
 42
0.0000000001
 43
0.0000000001
 12
1.0
 22
0.0
 32
0.0
 13
1.0
 23
0.0
 33
0.0
 40
0.0
 40
0.0
 40
0.0
 40
0.0
 40
0.0833333333333333
 40
0.0833333333333333
 40
0.0833333333333333
 40
0.0833333333333333
 40
0.1666666666666667
 40
0.1666666666666667
 40
0.1666666666666667
 40
0.1666666666666667
 40
0.25
 40
0.25
 40
0.25
 40
0.25
 40
0.3333333333333333
 40
0.3333333333333333
 40
0.3333333333333333
 40
0.3333333333333333
 40
0.4166666666666667
 40
0.4166666666666667
 40
0.4166666666666667
 40
0.4166666666666667
 40
0.5
 40
0.5
 40
0.5
 40
0.5
 40
0.5833333333333334
 40
0.5833333333333334
 40
0.5833333333333334
 40
0.5833333333333334
 40
0.6666666666666666
 40
0.6666666666666666
 40
0.6666666666666666
 40
0.6666666666666666
 40
0.75
 40
0.75
 40
0.75
 40
0.75
 40
0.8333333333333334
 40
0.8333333333333334
 40
0.8333333333333334
 40
0.8333333333333334
 40
1.0
 40
1.0
 40
1.0
 40
1.0
 10
-0.35878
 20
5.37026
 30
0.0
 10
-0.35878
 20
5.37026
 30
0.0
 10
-0.35878
 20
4.76419
 30
0.0
 10
-0.35878
 20
4.76419
 30
0.0
 10
-0.35878
 20
4.76419
 30
0.0
 10
-0.35878
 20
4.76419
 30
0.0
 10
-0.48903
 20
4.76419
 30
0.0
 10
-0.48903
 20
4.76419
 30
0.0
 10
-0.48903
 20
4.76419
 30
0.0
 10
-0.48903
 20
4.76419
 30
0.0
 10
-0.48903
 20
5.22309
 30
0.0
 10
-0.48903
 20
5.22309
 30
0.0
 10
-0.48903
 20
5.22309
 30
0.0
 10
-0.49622
 20
5.21674
 30
0.0
 10
-0.50469
 20
5.21081
 30
0.0
 10
-0.51457
 20
5.20516
 30
0.0
 10
-0.51457
 20
5.20516
 30
0.0
 10
-0.5243
 20
5.19952
 30
0.0
 10
-0.53475
 20
5.1943
 30
0.0
 10
-0.54575
 20
5.18978
 30
0.0
 10
-0.54575
 20
5.18978
 30
0.0
 10
-0.55676
 20
5.18527
 30
0.0
 10
-0.56819
 20
5.18146
 30
0.0
 10
-0.58004
 20
5.17821
 30
0.0
 10
-0.58004
 20
5.17821
 30
0.0
 10
-0.5919
 20
5.17511
 30
0.0
 10
-0.60361
 20
5.17285
 30
0.0
 10
-0.61518
 20
5.17144
 30
0.0
 10
-0.61518
 20
5.17144
 30
0.0
 10
-0.61518
 20
5.17144
 30
0.0
 10
-0.61518
 20
5.28136
 30
0.0
 10
-0.61518
 20
5.28136
 30
0.0
 10
-0.61518
 20
5.28136
 30
0.0
 10
-0.58131
 20
5.29124
 30
0.0
 10
-0.54928
 20
5.30394
 30
0.0
 10
-0.51922
 20
5.31946
 30
0.0
 10
-0.51922
 20
5.31946
 30
0.0
 10
-0.48917
 20
5.33485
 30
0.0
 10
-0.46207
 20
5.35178
 30
0.0
 10
-0.4378
 20
5.37026
 30
0.0
 10
-0.4378
 20
5.37026
 30
0.0
 10
-0.4378
 20
5.37026
 30
0.0
 10
-0.35878
 20
5.37026
 30
0.0
 10
-0.35878
 20
5.37026
 30
0.0
  0
SPLINE
  5
4E
330
1F
100
AcDbEntity
  8
Layer 1
 62
     5
370
     9
100
AcDbSpline
210
0.0
220
0.0
230
1.0
 70
    11
 71
     3
 72
   120
 73
   116
 74
     0
 42
0.0000000001
 43
0.0000000001
 12
1.0
 22
0.0
 32
0.0
 13
1.0
 23
0.0
 33
0.0
 40
0.0
 40
0.0
 40
0.0
 40
0.0
 40
0.0333333333333333
 40
0.0333333333333333
 40
0.0333333333333333
 40
0.0333333333333333
 40
0.0666666666666667
 40
0.0666666666666667
 40
0.0666666666666667
 40
0.0666666666666667
 40
0.1
 40
0.1
 40
0.1
 40
0.1
 40
0.1333333333333333
 40
0.1333333333333333
 40
0.1333333333333333
 40
0.1333333333333333
 40
0.1666666666666667
 40
0.1666666666666667
 40
0.1666666666666667
 40
0.1666666666666667
 40
0.2
 40
0.2
 40
0.2
 40
0.2
 40
0.2333333333333333
 40
0.2333333333333333
 40
0.2333333333333333
 40
0.2333333333333333
 40
0.2666666666666667
 40
0.2666666666666667
 40
0.2666666666666667
 40
0.2666666666666667
 40
0.3
 40
0.3
 40
0.3
 40
0.3
 40
0.3333333333333333
 40
0.3333333333333333
 40
0.3333333333333333
 40
0.3333333333333333
 40
0.3666666666666666
 40
0.3666666666666666
 40
0.3666666666666666
 40
0.3666666666666666
 40
0.4
 40
0.4
 40
0.4
 40
0.4
 40
0.4333333333333333
 40
0.4333333333333333
 40
0.4333333333333333
 40
0.4333333333333333
 40
0.4666666666666667
 40
0.4666666666666667
 40
0.4666666666666667
 40
0.4666666666666667
 40
0.5
 40
0.5
 40
0.5
 40
0.5
 40
0.5333333333333333
 40
0.5333333333333333
 40
0.5333333333333333
 40
0.5333333333333333
 40
0.5666666666666667
 40
0.5666666666666667
 40
0.5666666666666667
 40
0.5666666666666667
 40
0.6
 40
0.6
 40
0.6
 40
0.6
 40
0.6333333333333333
 40
0.6333333333333333
 40
0.6333333333333333
 40
0.6333333333333333
 40
0.6666666666666666
 40
0.6666666666666666
 40
0.6666666666666666
 40
0.6666666666666666
 40
0.7
 40
0.7
 40
0.7
 40
0.7
 40
0.7333333333333333
 40
0.7333333333333333
 40
0.7333333333333333
 40
0.7333333333333333
 40
0.7666666666666667
 40
0.7666666666666667
 40
0.7666666666666667
 40
0.7666666666666667
 40
0.8
 40
0.8
 40
0.8
 40
0.8
 40
0.8333333333333334
 40
0.8333333333333334
 40
0.8333333333333334
 40
0.8333333333333334
 40
0.8666666666666667
 40
0.8666666666666667
 40
0.8666666666666667
 40
0.8666666666666667
 40
0.9
 40
0.9
 40
0.9
 40
0.9
 40
0.9333333333333333
 40
0.9333333333333333
 40
0.9333333333333333
 40
0.9333333333333333
 40
1.0
 40
1.0
 40
1.0
 40
1.0
 10
-0.03845
 20
4.87256
 30
0.0
 10
-0.03845
 20
4.87256
 30
0.0
 10
0.21287
 20
4.87256
 30
0.0
 10
0.21287
 20
4.87256
 30
0.0
 10
0.21287
 20
4.87256
 30
0.0
 10
0.21287
 20
4.87256
 30
0.0
 10
0.21287
 20
4.76419
 30
0.0
 10
0.21287
 20
4.76419
 30
0.0
 10
0.21287
 20
4.76419
 30
0.0
 10
0.21287
 20
4.76419
 30
0.0
 10
-0.18154
 20
4.76419
 30
0.0
 10
-0.18154
 20
4.76419
 30
0.0
 10
-0.18154
 20
4.76419
 30
0.0
 10
-0.18154
 20
4.76419
 30
0.0
 10
-0.18154
 20
4.80878
 30
0.0
 10
-0.18154
 20
4.80878
 30
0.0
 10
-0.18154
 20
4.80878
 30
0.0
 10
-0.18154
 20
4.83912
 30
0.0
 10
-0.17646
 20
4.86635
 30
0.0
 10
-0.16616
 20
4.89048
 30
0.0
 10
-0.16616
 20
4.89048
 30
0.0
 10
-0.156
 20
4.91462
 30
0.0
 10
-0.14316
 20
4.93621
 30
0.0
 10
-0.12778
 20
4.9554
 30
0.0
 10
-0.12778
 20
4.9554
 30
0.0
 10
-0.1124
 20
4.97459
 30
0.0
 10
-0.09546
 20
4.99152
 30
0.0
 10
-0.07712
 20
5.0062
 30
0.0
 10
-0.07712
 20
5.0062
 30
0.0
 10
-0.05877
 20
5.02101
 30
0.0
 10
-0.04142
 20
5.03428
 30
0.0
 10
-0.02476
 20
5.04613
 30
0.0
 10
-0.02476
 20
5.04613
 30
0.0
 10
-0.00741
 20
5.05855
 30
0.0
 10
0.00769
 20
5.0704
 30
0.0
 10
0.02081
 20
5.08169
 30
0.0
 10
0.02081
 20
5.08169
 30
0.0
 10
0.03394
 20
5.09298
 30
0.0
 10
0.04494
 20
5.10427
 30
0.0
 10
0.05398
 20
5.11542
 30
0.0
 10
0.05398
 20
5.11542
 30
0.0
 10
0.06287
 20
5.12656
 30
0.0
 10
0.0695
 20
5.13785
 30
0.0
 10
0.07401
 20
5.14928
 30
0.0
 10
0.07401
 20
5.14928
 30
0.0
 10
0.07839
 20
5.16071
 30
0.0
 10
0.08065
 20
5.17285
 30
0.0
 10
0.08065
 20
5.18583
 30
0.0
 10
0.08065
 20
5.18583
 30
0.0
 10
0.08065
 20
5.21123
 30
0.0
 10
0.07345
 20
5.23042
 30
0.0
 10
0.05906
 20
5.24341
 30
0.0
 10
0.05906
 20
5.24341
 30
0.0
 10
0.0448
 20
5.25625
 30
0.0
 10
0.02279
 20
5.26274
 30
0.0
 10
-0.0067
 20
5.26274
 30
0.0
 10
-0.0067
 20
5.26274
 30
0.0
 10
-0.05764
 20
5.26274
 30
0.0
 10
-0.10647
 20
5.24256
 30
0.0
 10
-0.15304
 20
5.20206
 30
0.0
 10
-0.15304
 20
5.20206
 30
0.0
 10
-0.15304
 20
5.20206
 30
0.0
 10
-0.15304
 20
5.31692
 30
0.0
 10
-0.15304
 20
5.31692
 30
0.0
 10
-0.15304
 20
5.31692
 30
0.0
 10
-0.10139
 20
5.35023
 30
0.0
 10
-0.04325
 20
5.36702
 30
0.0
 10
0.02152
 20
5.36702
 30
0.0
 10
0.02152
 20
5.36702
 30
0.0
 10
0.05158
 20
5.36702
 30
0.0
 10
0.07839
 20
5.36307
 30
0.0
 10
0.10224
 20
5.35517
 30
0.0
 10
0.10224
 20
5.35517
 30
0.0
 10
0.12608
 20
5.34726
 30
0.0
 10
0.14626
 20
5.33612
 30
0.0
 10
0.16291
 20
5.32144
 30
0.0
 10
0.16291
 20
5.32144
 30
0.0
 10
0.17942
 20
5.30691
 30
0.0
 10
0.19198
 20
5.28913
 30
0.0
 10
0.20073
 20
5.26838
 30
0.0
 10
0.20073
 20
5.26838
 30
0.0
 10
0.20934
 20
5.2475
 30
0.0
 10
0.21371
 20
5.22436
 30
0.0
 10
0.21371
 20
5.19867
 30
0.0
 10
0.21371
 20
5.19867
 30
0.0
 10
0.21371
 20
5.17144
 30
0.0
 10
0.20948
 20
5.14717
 30
0.0
 10
0.20115
 20
5.126
 30
0.0
 10
0.20115
 20
5.126
 30
0.0
 10
0.19269
 20
5.10469
 30
0.0
 10
0.18154
 20
5.08536
 30
0.0
 10
0.16757
 20
5.068
 30
0.0
 10
0.16757
 20
5.068
 30
0.0
 10
0.15374
 20
5.05065
 30
0.0
 10
0.13765
 20
5.0347
 30
0.0
 10
0.11945
 20
5.02031
 30
0.0
 10
0.11945
 20
5.02031
 30
0.0
 10
0.10125
 20
5.00577
 30
0.0
 10
0.08234
 20
4.9918
 30
0.0
 10
0.06287
 20
4.9784
 30
0.0
 10
0.06287
 20
4.9784
 30
0.0
 10
0.0496
 20
4.96894
 30
0.0
 10
0.0369
 20
4.95963
 30
0.0
 10
0.02462
 20
4.95046
 30
0.0
 10
0.02462
 20
4.95046
 30
0.0
 10
0.01235
 20
4.94114
 30
0.0
 10
0.00148
 20
4.93211
 30
0.0
 10
-0.00783
 20
4.92308
 30
0.0
 10
-0.00783
 20
4.92308
 30
0.0
 10
-0.01729
 20
4.91419
 30
0.0
 10
-0.02476
 20
4.90544
 30
0.0
 10
-0.03027
 20
4.89683
 30
0.0
 10
-0.03027
 20
4.89683
 30
0.0
 10
-0.03577
 20
4.88837
 30
0.0
 10
-0.03845
 20
4.88018
 30
0.0
 10
-0.03845
 20
4.87256
 30
0.0
  0
SPLINE
  5
4F
330
1F
100
AcDbEntity
  8
Layer 1
 62
     5
370
     9
100
AcDbSpline
210
0.0
220
0.0
230
1.0
 70
    11
 71
     3
 72
   120
 73
   116
 74
     0
 42
0.0000000001
 43
0.0000000001
 12
1.0
 22
0.0
 32
0.0
 13
1.0
 23
0.0
 33
0.0
 40
0.0
 40
0.0
 40
0.0
 40
0.0
 40
0.0333333333333333
 40
0.0333333333333333
 40
0.0333333333333333
 40
0.0333333333333333
 40
0.0666666666666667
 40
0.0666666666666667
 40
0.0666666666666667
 40
0.0666666666666667
 40
0.1
 40
0.1
 40
0.1
 40
0.1
 40
0.1333333333333333
 40
0.1333333333333333
 40
0.1333333333333333
 40
0.1333333333333333
 40
0.1666666666666667
 40
0.1666666666666667
 40
0.1666666666666667
 40
0.1666666666666667
 40
0.2
 40
0.2
 40
0.2
 40
0.2
 40
0.2333333333333333
 40
0.2333333333333333
 40
0.2333333333333333
 40
0.2333333333333333
 40
0.2666666666666667
 40
0.2666666666666667
 40
0.2666666666666667
 40
0.2666666666666667
 40
0.3
 40
0.3
 40
0.3
 40
0.3
 40
0.3333333333333333
 40
0.3333333333333333
 40
0.3333333333333333
 40
0.3333333333333333
 40
0.3666666666666666
 40
0.3666666666666666
 40
0.3666666666666666
 40
0.3666666666666666
 40
0.4
 40
0.4
 40
0.4
 40
0.4
 40
0.4333333333333333
 40
0.4333333333333333
 40
0.4333333333333333
 40
0.4333333333333333
 40
0.4666666666666667
 40
0.4666666666666667
 40
0.4666666666666667
 40
0.4666666666666667
 40
0.5
 40
0.5
 40
0.5
 40
0.5
 40
0.5333333333333333
 40
0.5333333333333333
 40
0.5333333333333333
 40
0.5333333333333333
 40
0.5666666666666667
 40
0.5666666666666667
 40
0.5666666666666667
 40
0.5666666666666667
 40
0.6
 40
0.6
 40
0.6
 40
0.6
 40
0.6333333333333333
 40
0.6333333333333333
 40
0.6333333333333333
 40
0.6333333333333333
 40
0.6666666666666666
 40
0.6666666666666666
 40
0.6666666666666666
 40
0.6666666666666666
 40
0.7
 40
0.7
 40
0.7
 40
0.7
 40
0.7333333333333333
 40
0.7333333333333333
 40
0.7333333333333333
 40
0.7333333333333333
 40
0.7666666666666667
 40
0.7666666666666667
 40
0.7666666666666667
 40
0.7666666666666667
 40
0.8
 40
0.8
 40
0.8
 40
0.8
 40
0.8333333333333334
 40
0.8333333333333334
 40
0.8333333333333334
 40
0.8333333333333334
 40
0.8666666666666667
 40
0.8666666666666667
 40
0.8666666666666667
 40
0.8666666666666667
 40
0.9
 40
0.9
 40
0.9
 40
0.9
 40
0.9333333333333333
 40
0.9333333333333333
 40
0.9333333333333333
 40
0.9333333333333333
 40
1.0
 40
1.0
 40
1.0
 40
1.0
 10
0.44853
 20
4.87256
 30
0.0
 10
0.44853
 20
4.87256
 30
0.0
 10
0.69985
 20
4.87256
 30
0.0
 10
0.69985
 20
4.87256
 30
0.0
 10
0.69985
 20
4.87256
 30
0.0
 10
0.69985
 20
4.87256
 30
0.0
 10
0.69985
 20
4.76419
 30
0.0
 10
0.69985
 20
4.76419
 30
0.0
 10
0.69985
 20
4.76419
 30
0.0
 10
0.69985
 20
4.76419
 30
0.0
 10
0.30544
 20
4.76419
 30
0.0
 10
0.30544
 20
4.76419
 30
0.0
 10
0.30544
 20
4.76419
 30
0.0
 10
0.30544
 20
4.76419
 30
0.0
 10
0.30544
 20
4.80878
 30
0.0
 10
0.30544
 20
4.80878
 30
0.0
 10
0.30544
 20
4.80878
 30
0.0
 10
0.30544
 20
4.83912
 30
0.0
 10
0.31052
 20
4.86635
 30
0.0
 10
0.32082
 20
4.89048
 30
0.0
 10
0.32082
 20
4.89048
 30
0.0
 10
0.33098
 20
4.91462
 30
0.0
 10
0.34382
 20
4.93621
 30
0.0
 10
0.3592
 20
4.9554
 30
0.0
 10
0.3592
 20
4.9554
 30
0.0
 10
0.37458
 20
4.97459
 30
0.0
 10
0.39152
 20
4.99152
 30
0.0
 10
0.40986
 20
5.0062
 30
0.0
 10
0.40986
 20
5.0062
 30
0.0
 10
0.42821
 20
5.02101
 30
0.0
 10
0.44556
 20
5.03428
 30
0.0
 10
0.46222
 20
5.04613
 30
0.0
 10
0.46222
 20
5.04613
 30
0.0
 10
0.47957
 20
5.05855
 30
0.0
 10
0.49467
 20
5.0704
 30
0.0
 10
0.50779
 20
5.08169
 30
0.0
 10
0.50779
 20
5.08169
 30
0.0
 10
0.52092
 20
5.09298
 30
0.0
 10
0.53192
 20
5.10427
 30
0.0
 10
0.54096
 20
5.11542
 30
0.0
 10
0.54096
 20
5.11542
 30
0.0
 10
0.54985
 20
5.12656
 30
0.0
 10
0.55648
 20
5.13785
 30
0.0
 10
0.56099
 20
5.14928
 30
0.0
 10
0.56099
 20
5.14928
 30
0.0
 10
0.56537
 20
5.16071
 30
0.0
 10
0.56763
 20
5.17285
 30
0.0
 10
0.56763
 20
5.18583
 30
0.0
 10
0.56763
 20
5.18583
 30
0.0
 10
0.56763
 20
5.21123
 30
0.0
 10
0.56043
 20
5.23042
 30
0.0
 10
0.54604
 20
5.24341
 30
0.0
 10
0.54604
 20
5.24341
 30
0.0
 10
0.53178
 20
5.25625
 30
0.0
 10
0.50977
 20
5.26274
 30
0.0
 10
0.48028
 20
5.26274
 30
0.0
 10
0.48028
 20
5.26274
 30
0.0
 10
0.42934
 20
5.26274
 30
0.0
 10
0.38051
 20
5.24256
 30
0.0
 10
0.33394
 20
5.20206
 30
0.0
 10
0.33394
 20
5.20206
 30
0.0
 10
0.33394
 20
5.20206
 30
0.0
 10
0.33394
 20
5.31692
 30
0.0
 10
0.33394
 20
5.31692
 30
0.0
 10
0.33394
 20
5.31692
 30
0.0
 10
0.38559
 20
5.35023
 30
0.0
 10
0.44373
 20
5.36702
 30
0.0
 10
0.5085
 20
5.36702
 30
0.0
 10
0.5085
 20
5.36702
 30
0.0
 10
0.53856
 20
5.36702
 30
0.0
 10
0.56537
 20
5.36307
 30
0.0
 10
0.58922
 20
5.35517
 30
0.0
 10
0.58922
 20
5.35517
 30
0.0
 10
0.61306
 20
5.34726
 30
0.0
 10
0.63324
 20
5.33612
 30
0.0
 10
0.64989
 20
5.32144
 30
0.0
 10
0.64989
 20
5.32144
 30
0.0
 10
0.6664
 20
5.30691
 30
0.0
 10
0.67896
 20
5.28913
 30
0.0
 10
0.68771
 20
5.26838
 30
0.0
 10
0.68771
 20
5.26838
 30
0.0
 10
0.69632
 20
5.2475
 30
0.0
 10
0.70069
 20
5.22436
 30
0.0
 10
0.70069
 20
5.19867
 30
0.0
 10
0.70069
 20
5.19867
 30
0.0
 10
0.70069
 20
5.17144
 30
0.0
 10
0.69646
 20
5.14717
 30
0.0
 10
0.68813
 20
5.126
 30
0.0
 10
0.68813
 20
5.126
 30
0.0
 10
0.67967
 20
5.10469
 30
0.0
 10
0.66852
 20
5.08536
 30
0.0
 10
0.65455
 20
5.068
 30
0.0
 10
0.65455
 20
5.068
 30
0.0
 10
0.64072
 20
5.05065
 30
0.0
 10
0.62463
 20
5.0347
 30
0.0
 10
0.60643
 20
5.02031
 30
0.0
 10
0.60643
 20
5.02031
 30
0.0
 10
0.58823
 20
5.00577
 30
0.0
 10
0.56932
 20
4.9918
 30
0.0
 10
0.54985
 20
4.9784
 30
0.0
 10
0.54985
 20
4.9784
 30
0.0
 10
0.53658
 20
4.96894
 30
0.0
 10
0.52388
 20
4.95963
 30
0.0
 10
0.5116
 20
4.95046
 30
0.0
 10
0.5116
 20
4.95046
 30
0.0
 10
0.49933
 20
4.94114
 30
0.0
 10
0.48846
 20
4.93211
 30
0.0
 10
0.47915
 20
4.92308
 30
0.0
 10
0.47915
 20
4.92308
 30
0.0
 10
0.46969
 20
4.91419
 30
0.0
 10
0.46222
 20
4.90544
 30
0.0
 10
0.45671
 20
4.89683
 30
0.0
 10
0.45671
 20
4.89683
 30
0.0
 10
0.45121
 20
4.88837
 30
0.0
 10
0.44853
 20
4.88018
 30
0.0
 10
0.44853
 20
4.87256
 30
0.0
  0
ENDSEC
  0
SECTION
  2
OBJECTS
  0
DICTIONARY
  5
C
330
0
100
AcDbDictionary
281
     1
  3
ACAD_GROUP
350
D
  3
ACAD_LAYOUT
350
1A
  3
ACAD_MATERIAL
350
3B
  3
ACAD_MLEADERSTYLE
350
71
  3
ACAD_MLINESTYLE
350
17
  3
ACAD_PLOTSETTINGS
350
19
  3
ACAD_PLOTSTYLENAME
350
E
  3
ACAD_TABLESTYLE
350
70
  3
ACAD_VISUALSTYLE
350
2A
  0
DICTIONARY
  5
D
102
{ACAD_REACTORS
330
C
102
}
330
C
100
AcDbDictionary
281
     1
  0
DICTIONARY
  5
1A
102
{ACAD_REACTORS
330
C
102
}
330
C
100
AcDbDictionary
281
     1
  3
Layout1
350
1E
  3
Layout2
350
26
  3
Model
350
22
  0
DICTIONARY
  5
3B
102
{ACAD_REACTORS
330
C
102
}
330
C
100
AcDbDictionary
281
     1
  3
ByBlock
350
3D
  3
ByLayer
350
3C
  3
Global
350
3E
  0
DICTIONARY
  5
71
102
{ACAD_REACTORS
330
C
102
}
330
C
100
AcDbDictionary
281
     1
  0
DICTIONARY
  5
17
102
{ACAD_REACTORS
330
C
102
}
330
C
100
AcDbDictionary
281
     1
  3
Standard
350
18
  0
DICTIONARY
  5
19
102
{ACAD_REACTORS
330
C
102
}
330
C
100
AcDbDictionary
281
     1
  0
ACDBDICTIONARYWDFLT
  5
E
102
{ACAD_REACTORS
330
C
102
}
330
C
100
AcDbDictionary
281
     1
  3
Normal
350
F
100
AcDbDictionaryWithDefault
340
F
  0
DICTIONARY
  5
70
102
{ACAD_REACTORS
330
C
102
}
330
C
100
AcDbDictionary
281
     1
  0
DICTIONARY
  5
2A
102
{ACAD_REACTORS
330
C
102
}
330
C
100
AcDbDictionary
281
     1
  3
2dWireframe
350
2F
  3
3D Hidden
350
31
  3
3dWireframe
350
30
  3
Basic
350
32
  3
Brighten
350
36
  3
ColorChange
350
3A
  3
Conceptual
350
34
  3
Dim
350
35
  3
Facepattern
350
39
  3
Flat
350
2B
  3
FlatWithEdges
350
2C
  3
Gouraud
350
2D
  3
GouraudWithEdges
350
2E
  3
Linepattern
350
38
  3
Realistic
350
33
  3
Thicken
350
37
  0
LAYOUT
  5
1E
102
{ACAD_REACTORS
330
1A
102
}
330
1A
100
AcDbPlotSettings
  1

  2
none_device
  4

  6

 40
0.0
 41
0.0
 42
0.0
 43
0.0
 44
0.0
 45
0.0
 46
0.0
 47
0.0
 48
0.0
 49
0.0
140
0.0
141
0.0
142
1.0
143
1.0
 70
   688
 72
     0
 73
     0
 74
     5
  7

 75
    16
 76
     0
 77
     2
 78
   300
147
1.0
148
0.0
149
0.0
100
AcDbLayout
  1
Layout1
 70
     1
 71
     1
 10
0.0
 20
0.0
 11
12.0
 21
9.0
 12
0.0
 22
0.0
 32
0.0
 14
1.000000000000000E+20
 24
1.000000000000000E+20
 34
1.000000000000000E+20
 15
-1.000000000000000E+20
 25
-1.000000000000000E+20
 35
-1.000000000000000E+20
146
0.0
 13
0.0
 23
0.0
 33
0.0
 16
1.0
 26
0.0
 36
0.0
 17
0.0
 27
1.0
 37
0.0
 76
     0
330
1B
  0
LAYOUT
  5
26
102
{ACAD_REACTORS
330
1A
102
}
330
1A
100
AcDbPlotSettings
  1

  2
none_device
  4

  6

 40
0.0
 41
0.0
 42
0.0
 43
0.0
 44
0.0
 45
0.0
 46
0.0
 47
0.0
 48
0.0
 49
0.0
140
0.0
141
0.0
142
1.0
143
1.0
 70
   688
 72
     0
 73
     0
 74
     5
  7

 75
    16
 76
     0
 77
     2
 78
   300
147
1.0
148
0.0
149
0.0
100
AcDbLayout
  1
Layout2
 70
     1
 71
     2
 10
0.0
 20
0.0
 11
0.0
 21
0.0
 12
0.0
 22
0.0
 32
0.0
 14
0.0
 24
0.0
 34
0.0
 15
0.0
 25
0.0
 35
0.0
146
0.0
 13
0.0
 23
0.0
 33
0.0
 16
1.0
 26
0.0
 36
0.0
 17
0.0
 27
1.0
 37
0.0
 76
     0
330
23
  0
LAYOUT
  5
22
102
{ACAD_REACTORS
330
1A
102
}
330
1A
100
AcDbPlotSettings
  1

  2
none_device
  4

  6

 40
0.0
 41
0.0
 42
0.0
 43
0.0
 44
0.0
 45
0.0
 46
0.0
 47
0.0
 48
0.0
 49
0.0
140
0.0
141
0.0
142
1.0
143
1.0
 70
  1712
 72
     0
 73
     0
 74
     0
  7

 75
     0
 76
     0
 77
     2
 78
   300
147
1.0
148
0.0
149
0.0
100
AcDbLayout
  1
Model
 70
     1
 71
     0
 10
0.0
 20
0.0
 11
12.0
 21
9.0
 12
0.0
 22
0.0
 32
0.0
 14
-9.10996
 24
-9.10995
 34
0.0
 15
9.10996
 25
9.10994
 35
0.0
146
0.0
 13
0.0
 23
0.0
 33
0.0
 16
1.0
 26
0.0
 36
0.0
 17
0.0
 27
1.0
 37
0.0
 76
     0
330
1F
331
29
  0
MATERIAL
  5
3D
102
{ACAD_REACTORS
330
3B
102
}
330
3B
100
AcDbMaterial
  1
ByBlock
 72
     1
 94
      127
  0
MATERIAL
  5
3C
102
{ACAD_REACTORS
330
3B
102
}
330
3B
100
AcDbMaterial
  1
ByLayer
 72
     1
 94
      127
  0
MATERIAL
  5
3E
102
{ACAD_REACTORS
330
3B
102
}
330
3B
100
AcDbMaterial
  1
Global
 72
     1
 94
      127
  0
MLINESTYLE
  5
18
102
{ACAD_REACTORS
330
17
102
}
330
17
100
AcDbMlineStyle
  2
Standard
 70
     0
  3

 62
   256
 51
90.0
 52
90.0
 71
     2
 49
0.5
 62
   256
  6
BYLAYER
 49
-0.5
 62
   256
  6
BYLAYER
  0
ACDBPLACEHOLDER
  5
F
102
{ACAD_REACTORS
330
E
102
}
330
E
  0
VISUALSTYLE
  5
2F
102
{ACAD_REACTORS
330
2A
102
}
102
{ACAD_XDICTIONARY
360
58
102
}
330
2A
100
AcDbVisualStyle
  2
2dWireframe
 70
     4
 71
     0
 72
     2
 73
     0
 90
        0
 40
-0.6
 41
-30.0
 62
     5
 63
     7
421
 16777215
 74
     1
 91
        4
 64
     7
 65
   257
 75
     1
175
     1
 42
1.0
 92
        0
 66
   257
 43
1.0
 76
     1
 77
     6
 78
     2
 67
     7
 79
     5
170
     0
171
     0
290
     0
174
     0
 93
        1
 44
0.0
173
     0
291
     0
 45
0.0
  0
VISUALSTYLE
  5
31
102
{ACAD_REACTORS
330
2A
102
}
102
{ACAD_XDICTIONARY
360
5C
102
}
330
2A
100
AcDbVisualStyle
  2
3D Hidden
 70
     6
 71
     1
 72
     2
 73
     2
 90
        0
 40
-0.6
 41
-30.0
 62
     5
 63
     7
421
 16777215
 74
     2
 91
        2
 64
     7
 65
   257
 75
     2
175
     1
 42
40.0
 92
        0
 66
   257
 43
1.0
 76
     1
 77
     6
 78
     2
 67
     7
 79
     3
170
     0
171
     0
290
     0
174
     0
 93
        1
 44
0.0
173
     0
291
     0
 45
0.0
  0
VISUALSTYLE
  5
30
102
{ACAD_REACTORS
330
2A
102
}
102
{ACAD_XDICTIONARY
360
5A
102
}
330
2A
100
AcDbVisualStyle
  2
3dWireframe
 70
     5
 71
     0
 72
     2
 73
     0
 90
        0
 40
-0.6
 41
-30.0
 62
     5
 63
     7
421
 16777215
 74
     1
 91
        4
 64
     7
 65
   257
 75
     1
175
     1
 42
1.0
 92
        0
 66
   257
 43
1.0
 76
     1
 77
     6
 78
     2
 67
     7
 79
     5
170
     0
171
     0
290
     0
174
     0
 93
        1
 44
0.0
173
     0
291
     0
 45
0.0
  0
VISUALSTYLE
  5
32
102
{ACAD_REACTORS
330
2A
102
}
102
{ACAD_XDICTIONARY
360
5E
102
}
330
2A
100
AcDbVisualStyle
  2
Basic
 70
     7
 71
     1
 72
     0
 73
     1
 90
        0
 40
-0.6
 41
-30.0
 62
     5
 63
     7
421
 16777215
 74
     0
 91
        4
 64
     7
 65
   257
 75
     1
175
     1
 42
1.0
 92
        8
 66
     7
 43
1.0
 76
     1
 77
     6
 78
     2
 67
     7
 79
     5
170
     0
171
     0
290
     0
174
     0
 93
        1
 44
0.0
173
     0
291
     1
 45
0.0
  0
VISUALSTYLE
  5
36
102
{ACAD_REACTORS
330
2A
102
}
102
{ACAD_XDICTIONARY
360
66
102
}
330
2A
100
AcDbVisualStyle
  2
Brighten
 70
    12
 71
     2
 72
     2
 73
     0
 90
        0
 40
-0.6
 41
-30.0
 62
     5
 63
     7
421
 16777215
 74
     1
 91
        4
 64
     7
 65
   257
 75
     1
175
     1
 42
1.0
 92
        8
 66
     7
 43
1.0
 76
     1
 77
     6
 78
     2
 67
     7
 79
     5
170
     0
171
     0
290
     0
174
     0
 93
        1
 44
50.0
173
     0
291
     1
 45
0.0
  0
VISUALSTYLE
  5
3A
102
{ACAD_REACTORS
330
2A
102
}
102
{ACAD_XDICTIONARY
360
6E
102
}
330
2A
100
AcDbVisualStyle
  2
ColorChange
 70
    16
 71
     2
 72
     2
 73
     3
 90
        0
 40
-0.6
 41
-30.0
 62
     5
 63
     8
421
  8421504
 74
     1
 91
        4
 64
     7
 65
   257
 75
     1
175
     1
 42
1.0
 92
        8
 66
     8
424
  8421504
 43
1.0
 76
     1
 77
     6
 78
     2
 67
     7
 79
     5
170
     0
171
     0
290
     0
174
     0
 93
        1
 44
0.0
173
     0
291
     1
 45
0.0
  0
VISUALSTYLE
  5
34
102
{ACAD_REACTORS
330
2A
102
}
102
{ACAD_XDICTIONARY
360
62
102
}
330
2A
100
AcDbVisualStyle
  2
Conceptual
 70
     9
 71
     3
 72
     2
 73
     0
 90
        0
 40
-0.6
 41
-30.0
 62
     5
 63
     7
421
 16777215
 74
     2
 91
        2
 64
     7
 65
   257
 75
     1
175
     1
 42
40.0
 92
        8
 66
     7
 43
1.0
 76
     1
 77
     6
 78
     2
 67
     7
 79
     3
170
     0
171
     0
290
     0
174
     0
 93
        1
 44
0.0
173
     0
291
     0
 45
0.0
  0
VISUALSTYLE
  5
35
102
{ACAD_REACTORS
330
2A
102
}
102
{ACAD_XDICTIONARY
360
64
102
}
330
2A
100
AcDbVisualStyle
  2
Dim
 70
    11
 71
     2
 72
     2
 73
     0
 90
        0
 40
-0.6
 41
-30.0
 62
     5
 63
     7
421
 16777215
 74
     1
 91
        4
 64
     7
 65
   257
 75
     1
175
     1
 42
1.0
 92
        8
 66
     7
 43
1.0
 76
     1
 77
     6
 78
     2
 67
     7
 79
     5
170
     0
171
     0
290
     0
174
     0
 93
        1
 44
-50.0
173
     0
291
     1
 45
0.0
  0
VISUALSTYLE
  5
39
102
{ACAD_REACTORS
330
2A
102
}
102
{ACAD_XDICTIONARY
360
6C
102
}
330
2A
100
AcDbVisualStyle
  2
Facepattern
 70
    15
 71
     2
 72
     2
 73
     0
 90
        0
 40
-0.6
 41
-30.0
 62
     5
 63
     7
421
 16777215
 74
     1
 91
        4
 64
     7
 65
   257
 75
     1
175
     1
 42
1.0
 92
        8
 66
     7
 43
1.0
 76
     1
 77
     6
 78
     2
 67
     7
 79
     5
170
     0
171
     0
290
     0
174
     0
 93
        1
 44
0.0
173
     0
291
     1
 45
0.0
  0
VISUALSTYLE
  5
2B
102
{ACAD_REACTORS
330
2A
102
}
102
{ACAD_XDICTIONARY
360
50
102
}
330
2A
100
AcDbVisualStyle
  2
Flat
 70
     0
 71
     2
 72
     1
 73
     1
 90
        2
 40
-0.6
 41
30.0
 62
     5
 63
     7
421
 16777215
 74
     0
 91
        4
 64
     7
 65
   257
 75
     1
175
     1
 42
1.0
 92
        8
 66
     7
 43
1.0
 76
     1
 77
     6
 78
     2
 67
     7
 79
     5
170
     0
171
     0
290
     0
174
     0
 93
       13
 44
0.0
173
     0
291
     1
 45
0.0
  0
VISUALSTYLE
  5
2C
102
{ACAD_REACTORS
330
2A
102
}
102
{ACAD_XDICTIONARY
360
52
102
}
330
2A
100
AcDbVisualStyle
  2
FlatWithEdges
 70
     1
 71
     2
 72
     1
 73
     1
 90
        2
 40
-0.6
 41
30.0
 62
     5
 63
     7
421
 16777215
 74
     1
 91
        4
 64
     7
 65
   257
 75
     1
175
     1
 42
1.0
 92
        0
 66
   257
 43
1.0
 76
     1
 77
     6
 78
     2
 67
     7
 79
     5
170
     0
171
     0
290
     0
174
     0
 93
       13
 44
0.0
173
     0
291
     1
 45
0.0
  0
VISUALSTYLE
  5
2D
102
{ACAD_REACTORS
330
2A
102
}
102
{ACAD_XDICTIONARY
360
54
102
}
330
2A
100
AcDbVisualStyle
  2
Gouraud
 70
     2
 71
     2
 72
     2
 73
     1
 90
        2
 40
-0.6
 41
30.0
 62
     5
 63
     7
421
 16777215
 74
     0
 91
        4
 64
     7
 65
   257
 75
     1
175
     1
 42
1.0
 92
        0
 66
     7
 43
1.0
 76
     1
 77
     6
 78
     2
 67
     7
 79
     5
170
     0
171
     0
290
     0
174
     0
 93
       13
 44
0.0
173
     0
291
     1
 45
0.0
  0
VISUALSTYLE
  5
2E
102
{ACAD_REACTORS
330
2A
102
}
102
{ACAD_XDICTIONARY
360
56
102
}
330
2A
100
AcDbVisualStyle
  2
GouraudWithEdges
 70
     3
 71
     2
 72
     2
 73
     1
 90
        2
 40
-0.6
 41
30.0
 62
     5
 63
     7
421
 16777215
 74
     1
 91
        4
 64
     7
 65
   257
 75
     1
175
     1
 42
1.0
 92
        0
 66
   257
 43
1.0
 76
     1
 77
     6
 78
     2
 67
     7
 79
     5
170
     0
171
     0
290
     0
174
     0
 93
       13
 44
0.0
173
     0
291
     1
 45
0.0
  0
VISUALSTYLE
  5
38
102
{ACAD_REACTORS
330
2A
102
}
102
{ACAD_XDICTIONARY
360
6A
102
}
330
2A
100
AcDbVisualStyle
  2
Linepattern
 70
    14
 71
     2
 72
     2
 73
     0
 90
        0
 40
-0.6
 41
-30.0
 62
     5
 63
     7
421
 16777215
 74
     1
 91
        4
 64
     7
 65
   257
 75
     7
175
     7
 42
1.0
 92
        8
 66
     7
 43
1.0
 76
     1
 77
     6
 78
     2
 67
     7
 79
     5
170
     0
171
     0
290
     0
174
     0
 93
        1
 44
0.0
173
     0
291
     1
 45
0.0
  0
VISUALSTYLE
  5
33
102
{ACAD_REACTORS
330
2A
102
}
102
{ACAD_XDICTIONARY
360
60
102
}
330
2A
100
AcDbVisualStyle
  2
Realistic
 70
     8
 71
     2
 72
     2
 73
     0
 90
        0
 40
-0.6
 41
-30.0
 62
     5
 63
     7
421
 16777215
 74
     1
 91
        0
 64
     7
 65
   257
 75
     1
175
     1
 42
1.0
 92
        8
 66
     8
424
  7895160
 43
1.0
 76
     1
 77
     6
 78
     2
 67
     7
 79
     5
170
     0
171
     0
290
     0
174
     0
 93
       13
 44
0.0
173
     0
291
     0
 45
0.0
  0
VISUALSTYLE
  5
37
102
{ACAD_REACTORS
330
2A
102
}
102
{ACAD_XDICTIONARY
360
68
102
}
330
2A
100
AcDbVisualStyle
  2
Thicken
 70
    13
 71
     2
 72
     2
 73
     0
 90
        0
 40
-0.6
 41
-30.0
 62
     5
 63
     7
421
 16777215
 74
     1
 91
        4
 64
     7
 65
   257
 75
     1
175
     1
 42
1.0
 92
       12
 66
     7
 43
1.0
 76
     1
 77
     6
 78
     2
 67
     7
 79
     5
170
     0
171
     0
290
     0
174
     0
 93
        1
 44
0.0
173
     0
291
     1
 45
0.0
  0
DICTIONARY
  5
58
330
2F
100
AcDbDictionary
280
     1
281
     1
  3
ACAD_XREC_ROUNDTRIP
360
59
  0
DICTIONARY
  5
5C
330
31
100
AcDbDictionary
280
     1
281
     1
  3
ACAD_XREC_ROUNDTRIP
360
5D
  0
DICTIONARY
  5
5A
330
30
100
AcDbDictionary
280
     1
281
     1
  3
ACAD_XREC_ROUNDTRIP
360
5B
  0
DICTIONARY
  5
5E
330
32
100
AcDbDictionary
280
     1
281
     1
  3
ACAD_XREC_ROUNDTRIP
360
5F
  0
DICTIONARY
  5
66
330
36
100
AcDbDictionary
280
     1
281
     1
  3
ACAD_XREC_ROUNDTRIP
360
67
  0
DICTIONARY
  5
6E
330
3A
100
AcDbDictionary
280
     1
281
     1
  3
ACAD_XREC_ROUNDTRIP
360
6F
  0
DICTIONARY
  5
62
330
34
100
AcDbDictionary
280
     1
281
     1
  3
ACAD_XREC_ROUNDTRIP
360
63
  0
DICTIONARY
  5
64
330
35
100
AcDbDictionary
280
     1
281
     1
  3
ACAD_XREC_ROUNDTRIP
360
65
  0
DICTIONARY
  5
6C
330
39
100
AcDbDictionary
280
     1
281
     1
  3
ACAD_XREC_ROUNDTRIP
360
6D
  0
DICTIONARY
  5
50
330
2B
100
AcDbDictionary
280
     1
281
     1
  3
ACAD_XREC_ROUNDTRIP
360
51
  0
DICTIONARY
  5
52
330
2C
100
AcDbDictionary
280
     1
281
     1
  3
ACAD_XREC_ROUNDTRIP
360
53
  0
DICTIONARY
  5
54
330
2D
100
AcDbDictionary
280
     1
281
     1
  3
ACAD_XREC_ROUNDTRIP
360
55
  0
DICTIONARY
  5
56
330
2E
100
AcDbDictionary
280
     1
281
     1
  3
ACAD_XREC_ROUNDTRIP
360
57
  0
DICTIONARY
  5
6A
330
38
100
AcDbDictionary
280
     1
281
     1
  3
ACAD_XREC_ROUNDTRIP
360
6B
  0
DICTIONARY
  5
60
330
33
100
AcDbDictionary
280
     1
281
     1
  3
ACAD_XREC_ROUNDTRIP
360
61
  0
DICTIONARY
  5
68
330
37
100
AcDbDictionary
280
     1
281
     1
  3
ACAD_XREC_ROUNDTRIP
360
69
  0
XRECORD
  5
59
102
{ACAD_REACTORS
330
58
102
}
330
58
100
AcDbXrecord
280
     1
102
RTVSPropertyOp0
 70
     1
102
RTVSPropertyOp1
 70
     1
102
RTVSPropertyOp2
 70
     1
102
RTVSPropertyOp3
 70
     1
102
RTVSPropertyOp4
 70
     1
102
RTVSPropertyOp5
 70
     1
102
RTVSPropertyOp6
 70
     1
102
RTVSPropertyOp7
 70
     1
102
RTVSPropertyOp8
 70
     1
102
RTVSPropertyOp9
 70
     1
102
RTVSPropertyOp10
 70
     1
102
RTVSPropertyOp11
 70
     1
102
RTVSPropertyOp12
 70
     1
102
RTVSPropertyOp13
 70
     1
102
RTVSPropertyOp14
 70
     1
102
RTVSPropertyOp15
 70
     1
102
RTVSPropertyOp16
 70
     1
102
RTVSPropertyOp17
 70
     1
102
RTVSPropertyOp18
 70
     1
102
RTVSPropertyOp19
 70
     1
102
RTVSPropertyOp20
 70
     1
102
RTVSPropertyOp21
 70
     1
102
RTVSPropertyOp22
 70
     1
102
RTVSPropertyOp23
 70
     1
102
RTVSPropertyOp24
 70
     1
102
RTVSPropertyOp25
 70
     1
102
RTVSPropertyOp26
 70
     1
102
RTVSPropertyOp27
 70
     1
102
RTVSPropertyOp28
 70
     1
102
RTVSPropertyOp29
 70
     1
102
RTVSPropertyOp30
 70
     1
102
RTVSPropertyOp31
 70
     1
102
RTVSPropertyOp32
 70
     1
  0
XRECORD
  5
5D
102
{ACAD_REACTORS
330
5C
102
}
330
5C
100
AcDbXrecord
280
     1
102
RTVSPropertyOp0
 70
     1
102
RTVSPropertyOp1
 70
     1
102
RTVSPropertyOp2
 70
     1
102
RTVSPropertyOp3
 70
     1
102
RTVSPropertyOp4
 70
     1
102
RTVSPropertyOp5
 70
     1
102
RTVSPropertyOp6
 70
     1
102
RTVSPropertyOp7
 70
     1
102
RTVSPropertyOp8
 70
     1
102
RTVSPropertyOp9
 70
     1
102
RTVSPropertyOp10
 70
     1
102
RTVSPropertyOp11
 70
     1
102
RTVSPropertyOp12
 70
     1
102
RTVSPropertyOp13
 70
     1
102
RTVSPropertyOp14
 70
     1
102
RTVSPropertyOp15
 70
     1
102
RTVSPropertyOp16
 70
     1
102
RTVSPropertyOp17
 70
     1
102
RTVSPropertyOp18
 70
     1
102
RTVSPropertyOp19
 70
     1
102
RTVSPropertyOp20
 70
     1
102
RTVSPropertyOp21
 70
     1
102
RTVSPropertyOp22
 70
     1
102
RTVSPropertyOp23
 70
     1
102
RTVSPropertyOp24
 70
     1
102
RTVSPropertyOp25
 70
     1
102
RTVSPropertyOp26
 70
     1
102
RTVSPropertyOp27
 70
     1
102
RTVSPropertyOp28
 70
     1
102
RTVSPropertyOp29
 70
     1
102
RTVSPropertyOp30
 70
     1
102
RTVSPropertyOp31
 70
     1
102
RTVSPropertyOp32
 70
     1
  0
XRECORD
  5
5B
102
{ACAD_REACTORS
330
5A
102
}
330
5A
100
AcDbXrecord
280
     1
102
RTVSPropertyOp0
 70
     1
102
RTVSPropertyOp1
 70
     1
102
RTVSPropertyOp2
 70
     1
102
RTVSPropertyOp3
 70
     1
102
RTVSPropertyOp4
 70
     1
102
RTVSPropertyOp5
 70
     1
102
RTVSPropertyOp6
 70
     1
102
RTVSPropertyOp7
 70
     1
102
RTVSPropertyOp8
 70
     1
102
RTVSPropertyOp9
 70
     1
102
RTVSPropertyOp10
 70
     1
102
RTVSPropertyOp11
 70
     1
102
RTVSPropertyOp12
 70
     1
102
RTVSPropertyOp13
 70
     1
102
RTVSPropertyOp14
 70
     1
102
RTVSPropertyOp15
 70
     1
102
RTVSPropertyOp16
 70
     1
102
RTVSPropertyOp17
 70
     1
102
RTVSPropertyOp18
 70
     1
102
RTVSPropertyOp19
 70
     1
102
RTVSPropertyOp20
 70
     1
102
RTVSPropertyOp21
 70
     1
102
RTVSPropertyOp22
 70
     1
102
RTVSPropertyOp23
 70
     1
102
RTVSPropertyOp24
 70
     1
102
RTVSPropertyOp25
 70
     1
102
RTVSPropertyOp26
 70
     1
102
RTVSPropertyOp27
 70
     1
102
RTVSPropertyOp28
 70
     1
102
RTVSPropertyOp29
 70
     1
102
RTVSPropertyOp30
 70
     1
102
RTVSPropertyOp31
 70
     1
102
RTVSPropertyOp32
 70
     1
  0
XRECORD
  5
5F
102
{ACAD_REACTORS
330
5E
102
}
330
5E
100
AcDbXrecord
280
     1
102
RTVSPropertyOp0
 70
     1
102
RTVSPropertyOp1
 70
     1
102
RTVSPropertyOp2
 70
     1
102
RTVSPropertyOp3
 70
     1
102
RTVSPropertyOp4
 70
     1
102
RTVSPropertyOp5
 70
     1
102
RTVSPropertyOp6
 70
     1
102
RTVSPropertyOp7
 70
     1
102
RTVSPropertyOp8
 70
     1
102
RTVSPropertyOp9
 70
     1
102
RTVSPropertyOp10
 70
     1
102
RTVSPropertyOp11
 70
     1
102
RTVSPropertyOp12
 70
     1
102
RTVSPropertyOp13
 70
     1
102
RTVSPropertyOp14
 70
     1
102
RTVSPropertyOp15
 70
     1
102
RTVSPropertyOp16
 70
     1
102
RTVSPropertyOp17
 70
     1
102
RTVSPropertyOp18
 70
     1
102
RTVSPropertyOp19
 70
     1
102
RTVSPropertyOp20
 70
     1
102
RTVSPropertyOp21
 70
     1
102
RTVSPropertyOp22
 70
     1
102
RTVSPropertyOp23
 70
     1
102
RTVSPropertyOp24
 70
     1
102
RTVSPropertyOp25
 70
     1
102
RTVSPropertyOp26
 70
     1
102
RTVSPropertyOp27
 70
     1
102
RTVSPropertyOp28
 70
     1
102
RTVSPropertyOp29
 70
     1
102
RTVSPropertyOp30
 70
     1
102
RTVSPropertyOp31
 70
     1
102
RTVSPropertyOp32
 70
     1
  0
XRECORD
  5
67
102
{ACAD_REACTORS
330
66
102
}
330
66
100
AcDbXrecord
280
     1
102
RTVSPropertyOp0
 70
     1
102
RTVSPropertyOp1
 70
     1
102
RTVSPropertyOp2
 70
     1
102
RTVSPropertyOp3
 70
     1
102
RTVSPropertyOp4
 70
     1
102
RTVSPropertyOp5
 70
     1
102
RTVSPropertyOp6
 70
     1
102
RTVSPropertyOp7
 70
     1
102
RTVSPropertyOp8
 70
     1
102
RTVSPropertyOp9
 70
     1
102
RTVSPropertyOp10
 70
     1
102
RTVSPropertyOp11
 70
     1
102
RTVSPropertyOp12
 70
     1
102
RTVSPropertyOp13
 70
     1
102
RTVSPropertyOp14
 70
     1
102
RTVSPropertyOp15
 70
     1
102
RTVSPropertyOp16
 70
     1
102
RTVSPropertyOp17
 70
     1
102
RTVSPropertyOp18
 70
     1
102
RTVSPropertyOp19
 70
     1
102
RTVSPropertyOp20
 70
     1
102
RTVSPropertyOp21
 70
     1
102
RTVSPropertyOp22
 70
     1
102
RTVSPropertyOp23
 70
     1
102
RTVSPropertyOp24
 70
     1
102
RTVSPropertyOp25
 70
     1
102
RTVSPropertyOp26
 70
     1
102
RTVSPropertyOp27
 70
     1
102
RTVSPropertyOp28
 70
     1
102
RTVSPropertyOp29
 70
     1
102
RTVSPropertyOp30
 70
     1
102
RTVSPropertyOp31
 70
     1
102
RTVSPropertyOp32
 70
     1
  0
XRECORD
  5
6F
102
{ACAD_REACTORS
330
6E
102
}
330
6E
100
AcDbXrecord
280
     1
102
RTVSPropertyOp0
 70
     1
102
RTVSPropertyOp1
 70
     1
102
RTVSPropertyOp2
 70
     1
102
RTVSPropertyOp3
 70
     1
102
RTVSPropertyOp4
 70
     1
102
RTVSPropertyOp5
 70
     1
102
RTVSPropertyOp6
 70
     1
102
RTVSPropertyOp7
 70
     1
102
RTVSPropertyOp8
 70
     1
102
RTVSPropertyOp9
 70
     1
102
RTVSPropertyOp10
 70
     1
102
RTVSPropertyOp11
 70
     1
102
RTVSPropertyOp12
 70
     1
102
RTVSPropertyOp13
 70
     1
102
RTVSPropertyOp14
 70
     1
102
RTVSPropertyOp15
 70
     1
102
RTVSPropertyOp16
 70
     1
102
RTVSPropertyOp17
 70
     1
102
RTVSPropertyOp18
 70
     1
102
RTVSPropertyOp19
 70
     1
102
RTVSPropertyOp20
 70
     1
102
RTVSPropertyOp21
 70
     1
102
RTVSPropertyOp22
 70
     1
102
RTVSPropertyOp23
 70
     1
102
RTVSPropertyOp24
 70
     1
102
RTVSPropertyOp25
 70
     1
102
RTVSPropertyOp26
 70
     1
102
RTVSPropertyOp27
 70
     1
102
RTVSPropertyOp28
 70
     1
102
RTVSPropertyOp29
 70
     1
102
RTVSPropertyOp30
 70
     1
102
RTVSPropertyOp31
 70
     1
102
RTVSPropertyOp32
 70
     1
  0
XRECORD
  5
63
102
{ACAD_REACTORS
330
62
102
}
330
62
100
AcDbXrecord
280
     1
102
RTVSPropertyOp0
 70
     1
102
RTVSPropertyOp1
 70
     1
102
RTVSPropertyOp2
 70
     1
102
RTVSPropertyOp3
 70
     1
102
RTVSPropertyOp4
 70
     1
102
RTVSPropertyOp5
 70
     1
102
RTVSPropertyOp6
 70
     1
102
RTVSPropertyOp7
 70
     1
102
RTVSPropertyOp8
 70
     1
102
RTVSPropertyOp9
 70
     1
102
RTVSPropertyOp10
 70
     1
102
RTVSPropertyOp11
 70
     1
102
RTVSPropertyOp12
 70
     1
102
RTVSPropertyOp13
 70
     1
102
RTVSPropertyOp14
 70
     1
102
RTVSPropertyOp15
 70
     1
102
RTVSPropertyOp16
 70
     1
102
RTVSPropertyOp17
 70
     1
102
RTVSPropertyOp18
 70
     1
102
RTVSPropertyOp19
 70
     1
102
RTVSPropertyOp20
 70
     1
102
RTVSPropertyOp21
 70
     1
102
RTVSPropertyOp22
 70
     1
102
RTVSPropertyOp23
 70
     1
102
RTVSPropertyOp24
 70
     1
102
RTVSPropertyOp25
 70
     1
102
RTVSPropertyOp26
 70
     1
102
RTVSPropertyOp27
 70
     1
102
RTVSPropertyOp28
 70
     1
102
RTVSPropertyOp29
 70
     1
102
RTVSPropertyOp30
 70
     1
102
RTVSPropertyOp31
 70
     1
102
RTVSPropertyOp32
 70
     1
  0
XRECORD
  5
65
102
{ACAD_REACTORS
330
64
102
}
330
64
100
AcDbXrecord
280
     1
102
RTVSPropertyOp0
 70
     1
102
RTVSPropertyOp1
 70
     1
102
RTVSPropertyOp2
 70
     1
102
RTVSPropertyOp3
 70
     1
102
RTVSPropertyOp4
 70
     1
102
RTVSPropertyOp5
 70
     1
102
RTVSPropertyOp6
 70
     1
102
RTVSPropertyOp7
 70
     1
102
RTVSPropertyOp8
 70
     1
102
RTVSPropertyOp9
 70
     1
102
RTVSPropertyOp10
 70
     1
102
RTVSPropertyOp11
 70
     1
102
RTVSPropertyOp12
 70
     1
102
RTVSPropertyOp13
 70
     1
102
RTVSPropertyOp14
 70
     1
102
RTVSPropertyOp15
 70
     1
102
RTVSPropertyOp16
 70
     1
102
RTVSPropertyOp17
 70
     1
102
RTVSPropertyOp18
 70
     1
102
RTVSPropertyOp19
 70
     1
102
RTVSPropertyOp20
 70
     1
102
RTVSPropertyOp21
 70
     1
102
RTVSPropertyOp22
 70
     1
102
RTVSPropertyOp23
 70
     1
102
RTVSPropertyOp24
 70
     1
102
RTVSPropertyOp25
 70
     1
102
RTVSPropertyOp26
 70
     1
102
RTVSPropertyOp27
 70
     1
102
RTVSPropertyOp28
 70
     1
102
RTVSPropertyOp29
 70
     1
102
RTVSPropertyOp30
 70
     1
102
RTVSPropertyOp31
 70
     1
102
RTVSPropertyOp32
 70
     1
  0
XRECORD
  5
6D
102
{ACAD_REACTORS
330
6C
102
}
330
6C
100
AcDbXrecord
280
     1
102
RTVSPropertyOp0
 70
     1
102
RTVSPropertyOp1
 70
     1
102
RTVSPropertyOp2
 70
     1
102
RTVSPropertyOp3
 70
     1
102
RTVSPropertyOp4
 70
     1
102
RTVSPropertyOp5
 70
     1
102
RTVSPropertyOp6
 70
     1
102
RTVSPropertyOp7
 70
     1
102
RTVSPropertyOp8
 70
     1
102
RTVSPropertyOp9
 70
     1
102
RTVSPropertyOp10
 70
     1
102
RTVSPropertyOp11
 70
     1
102
RTVSPropertyOp12
 70
     1
102
RTVSPropertyOp13
 70
     1
102
RTVSPropertyOp14
 70
     1
102
RTVSPropertyOp15
 70
     1
102
RTVSPropertyOp16
 70
     1
102
RTVSPropertyOp17
 70
     1
102
RTVSPropertyOp18
 70
     1
102
RTVSPropertyOp19
 70
     1
102
RTVSPropertyOp20
 70
     1
102
RTVSPropertyOp21
 70
     1
102
RTVSPropertyOp22
 70
     1
102
RTVSPropertyOp23
 70
     1
102
RTVSPropertyOp24
 70
     1
102
RTVSPropertyOp25
 70
     1
102
RTVSPropertyOp26
 70
     1
102
RTVSPropertyOp27
 70
     1
102
RTVSPropertyOp28
 70
     1
102
RTVSPropertyOp29
 70
     1
102
RTVSPropertyOp30
 70
     1
102
RTVSPropertyOp31
 70
     1
102
RTVSPropertyOp32
 70
     1
  0
XRECORD
  5
51
102
{ACAD_REACTORS
330
50
102
}
330
50
100
AcDbXrecord
280
     1
102
RTVSPropertyOp0
 70
     1
102
RTVSPropertyOp1
 70
     1
102
RTVSPropertyOp2
 70
     1
102
RTVSPropertyOp3
 70
     1
102
RTVSPropertyOp4
 70
     1
102
RTVSPropertyOp5
 70
     1
102
RTVSPropertyOp6
 70
     1
102
RTVSPropertyOp7
 70
     1
102
RTVSPropertyOp8
 70
     1
102
RTVSPropertyOp9
 70
     1
102
RTVSPropertyOp10
 70
     1
102
RTVSPropertyOp11
 70
     1
102
RTVSPropertyOp12
 70
     1
102
RTVSPropertyOp13
 70
     1
102
RTVSPropertyOp14
 70
     1
102
RTVSPropertyOp15
 70
     1
102
RTVSPropertyOp16
 70
     1
102
RTVSPropertyOp17
 70
     1
102
RTVSPropertyOp18
 70
     1
102
RTVSPropertyOp19
 70
     1
102
RTVSPropertyOp20
 70
     1
102
RTVSPropertyOp21
 70
     1
102
RTVSPropertyOp22
 70
     1
102
RTVSPropertyOp23
 70
     1
102
RTVSPropertyOp24
 70
     1
102
RTVSPropertyOp25
 70
     1
102
RTVSPropertyOp26
 70
     1
102
RTVSPropertyOp27
 70
     1
102
RTVSPropertyOp28
 70
     1
102
RTVSPropertyOp29
 70
     1
102
RTVSPropertyOp30
 70
     1
102
RTVSPropertyOp31
 70
     1
102
RTVSPropertyOp32
 70
     1
  0
XRECORD
  5
53
102
{ACAD_REACTORS
330
52
102
}
330
52
100
AcDbXrecord
280
     1
102
RTVSPropertyOp0
 70
     1
102
RTVSPropertyOp1
 70
     1
102
RTVSPropertyOp2
 70
     1
102
RTVSPropertyOp3
 70
     1
102
RTVSPropertyOp4
 70
     1
102
RTVSPropertyOp5
 70
     1
102
RTVSPropertyOp6
 70
     1
102
RTVSPropertyOp7
 70
     1
102
RTVSPropertyOp8
 70
     1
102
RTVSPropertyOp9
 70
     1
102
RTVSPropertyOp10
 70
     1
102
RTVSPropertyOp11
 70
     1
102
RTVSPropertyOp12
 70
     1
102
RTVSPropertyOp13
 70
     1
102
RTVSPropertyOp14
 70
     1
102
RTVSPropertyOp15
 70
     1
102
RTVSPropertyOp16
 70
     1
102
RTVSPropertyOp17
 70
     1
102
RTVSPropertyOp18
 70
     1
102
RTVSPropertyOp19
 70
     1
102
RTVSPropertyOp20
 70
     1
102
RTVSPropertyOp21
 70
     1
102
RTVSPropertyOp22
 70
     1
102
RTVSPropertyOp23
 70
     1
102
RTVSPropertyOp24
 70
     1
102
RTVSPropertyOp25
 70
     1
102
RTVSPropertyOp26
 70
     1
102
RTVSPropertyOp27
 70
     1
102
RTVSPropertyOp28
 70
     1
102
RTVSPropertyOp29
 70
     1
102
RTVSPropertyOp30
 70
     1
102
RTVSPropertyOp31
 70
     1
102
RTVSPropertyOp32
 70
     1
  0
XRECORD
  5
55
102
{ACAD_REACTORS
330
54
102
}
330
54
100
AcDbXrecord
280
     1
102
RTVSPropertyOp0
 70
     1
102
RTVSPropertyOp1
 70
     1
102
RTVSPropertyOp2
 70
     1
102
RTVSPropertyOp3
 70
     1
102
RTVSPropertyOp4
 70
     1
102
RTVSPropertyOp5
 70
     1
102
RTVSPropertyOp6
 70
     1
102
RTVSPropertyOp7
 70
     1
102
RTVSPropertyOp8
 70
     1
102
RTVSPropertyOp9
 70
     1
102
RTVSPropertyOp10
 70
     1
102
RTVSPropertyOp11
 70
     1
102
RTVSPropertyOp12
 70
     1
102
RTVSPropertyOp13
 70
     1
102
RTVSPropertyOp14
 70
     1
102
RTVSPropertyOp15
 70
     1
102
RTVSPropertyOp16
 70
     1
102
RTVSPropertyOp17
 70
     1
102
RTVSPropertyOp18
 70
     1
102
RTVSPropertyOp19
 70
     1
102
RTVSPropertyOp20
 70
     1
102
RTVSPropertyOp21
 70
     1
102
RTVSPropertyOp22
 70
     1
102
RTVSPropertyOp23
 70
     1
102
RTVSPropertyOp24
 70
     1
102
RTVSPropertyOp25
 70
     1
102
RTVSPropertyOp26
 70
     1
102
RTVSPropertyOp27
 70
     1
102
RTVSPropertyOp28
 70
     1
102
RTVSPropertyOp29
 70
     1
102
RTVSPropertyOp30
 70
     1
102
RTVSPropertyOp31
 70
     1
102
RTVSPropertyOp32
 70
     1
  0
XRECORD
  5
57
102
{ACAD_REACTORS
330
56
102
}
330
56
100
AcDbXrecord
280
     1
102
RTVSPropertyOp0
 70
     1
102
RTVSPropertyOp1
 70
     1
102
RTVSPropertyOp2
 70
     1
102
RTVSPropertyOp3
 70
     1
102
RTVSPropertyOp4
 70
     1
102
RTVSPropertyOp5
 70
     1
102
RTVSPropertyOp6
 70
     1
102
RTVSPropertyOp7
 70
     1
102
RTVSPropertyOp8
 70
     1
102
RTVSPropertyOp9
 70
     1
102
RTVSPropertyOp10
 70
     1
102
RTVSPropertyOp11
 70
     1
102
RTVSPropertyOp12
 70
     1
102
RTVSPropertyOp13
 70
     1
102
RTVSPropertyOp14
 70
     1
102
RTVSPropertyOp15
 70
     1
102
RTVSPropertyOp16
 70
     1
102
RTVSPropertyOp17
 70
     1
102
RTVSPropertyOp18
 70
     1
102
RTVSPropertyOp19
 70
     1
102
RTVSPropertyOp20
 70
     1
102
RTVSPropertyOp21
 70
     1
102
RTVSPropertyOp22
 70
     1
102
RTVSPropertyOp23
 70
     1
102
RTVSPropertyOp24
 70
     1
102
RTVSPropertyOp25
 70
     1
102
RTVSPropertyOp26
 70
     1
102
RTVSPropertyOp27
 70
     1
102
RTVSPropertyOp28
 70
     1
102
RTVSPropertyOp29
 70
     1
102
RTVSPropertyOp30
 70
     1
102
RTVSPropertyOp31
 70
     1
102
RTVSPropertyOp32
 70
     1
  0
XRECORD
  5
6B
102
{ACAD_REACTORS
330
6A
102
}
330
6A
100
AcDbXrecord
280
     1
102
RTVSPropertyOp0
 70
     1
102
RTVSPropertyOp1
 70
     1
102
RTVSPropertyOp2
 70
     1
102
RTVSPropertyOp3
 70
     1
102
RTVSPropertyOp4
 70
     1
102
RTVSPropertyOp5
 70
     1
102
RTVSPropertyOp6
 70
     1
102
RTVSPropertyOp7
 70
     1
102
RTVSPropertyOp8
 70
     1
102
RTVSPropertyOp9
 70
     1
102
RTVSPropertyOp10
 70
     1
102
RTVSPropertyOp11
 70
     1
102
RTVSPropertyOp12
 70
     1
102
RTVSPropertyOp13
 70
     1
102
RTVSPropertyOp14
 70
     1
102
RTVSPropertyOp15
 70
     1
102
RTVSPropertyOp16
 70
     1
102
RTVSPropertyOp17
 70
     1
102
RTVSPropertyOp18
 70
     1
102
RTVSPropertyOp19
 70
     1
102
RTVSPropertyOp20
 70
     1
102
RTVSPropertyOp21
 70
     1
102
RTVSPropertyOp22
 70
     1
102
RTVSPropertyOp23
 70
     1
102
RTVSPropertyOp24
 70
     1
102
RTVSPropertyOp25
 70
     1
102
RTVSPropertyOp26
 70
     1
102
RTVSPropertyOp27
 70
     1
102
RTVSPropertyOp28
 70
     1
102
RTVSPropertyOp29
 70
     1
102
RTVSPropertyOp30
 70
     1
102
RTVSPropertyOp31
 70
     1
102
RTVSPropertyOp32
 70
     1
  0
XRECORD
  5
61
102
{ACAD_REACTORS
330
60
102
}
330
60
100
AcDbXrecord
280
     1
102
RTVSPropertyOp0
 70
     1
102
RTVSPropertyOp1
 70
     1
102
RTVSPropertyOp2
 70
     1
102
RTVSPropertyOp3
 70
     1
102
RTVSPropertyOp4
 70
     1
102
RTVSPropertyOp5
 70
     1
102
RTVSPropertyOp6
 70
     1
102
RTVSPropertyOp7
 70
     1
102
RTVSPropertyOp8
 70
     1
102
RTVSPropertyOp9
 70
     1
102
RTVSPropertyOp10
 70
     1
102
RTVSPropertyOp11
 70
     1
102
RTVSPropertyOp12
 70
     1
102
RTVSPropertyOp13
 70
     1
102
RTVSPropertyOp14
 70
     1
102
RTVSPropertyOp15
 70
     1
102
RTVSPropertyOp16
 70
     1
102
RTVSPropertyOp17
 70
     1
102
RTVSPropertyOp18
 70
     1
102
RTVSPropertyOp19
 70
     1
102
RTVSPropertyOp20
 70
     1
102
RTVSPropertyOp21
 70
     1
102
RTVSPropertyOp22
 70
     1
102
RTVSPropertyOp23
 70
     1
102
RTVSPropertyOp24
 70
     1
102
RTVSPropertyOp25
 70
     1
102
RTVSPropertyOp26
 70
     1
102
RTVSPropertyOp27
 70
     1
102
RTVSPropertyOp28
 70
     1
102
RTVSPropertyOp29
 70
     1
102
RTVSPropertyOp30
 70
     1
102
RTVSPropertyOp31
 70
     1
102
RTVSPropertyOp32
 70
     1
  0
XRECORD
  5
69
102
{ACAD_REACTORS
330
68
102
}
330
68
100
AcDbXrecord
280
     1
102
RTVSPropertyOp0
 70
     1
102
RTVSPropertyOp1
 70
     1
102
RTVSPropertyOp2
 70
     1
102
RTVSPropertyOp3
 70
     1
102
RTVSPropertyOp4
 70
     1
102
RTVSPropertyOp5
 70
     1
102
RTVSPropertyOp6
 70
     1
102
RTVSPropertyOp7
 70
     1
102
RTVSPropertyOp8
 70
     1
102
RTVSPropertyOp9
 70
     1
102
RTVSPropertyOp10
 70
     1
102
RTVSPropertyOp11
 70
     1
102
RTVSPropertyOp12
 70
     1
102
RTVSPropertyOp13
 70
     1
102
RTVSPropertyOp14
 70
     1
102
RTVSPropertyOp15
 70
     1
102
RTVSPropertyOp16
 70
     1
102
RTVSPropertyOp17
 70
     1
102
RTVSPropertyOp18
 70
     1
102
RTVSPropertyOp19
 70
     1
102
RTVSPropertyOp20
 70
     1
102
RTVSPropertyOp21
 70
     1
102
RTVSPropertyOp22
 70
     1
102
RTVSPropertyOp23
 70
     1
102
RTVSPropertyOp24
 70
     1
102
RTVSPropertyOp25
 70
     1
102
RTVSPropertyOp26
 70
     1
102
RTVSPropertyOp27
 70
     1
102
RTVSPropertyOp28
 70
     1
102
RTVSPropertyOp29
 70
     1
102
RTVSPropertyOp30
 70
     1
102
RTVSPropertyOp31
 70
     1
102
RTVSPropertyOp32
 70
     1
  0
ENDSEC
  0
EOF
